<svg width="750" height="750" viewBox="0 0 750 750" fill="none" xmlns="http://www.w3.org/2000/svg">
<path fill-rule="evenodd" clip-rule="evenodd" d="M150.077 364.537C150.077 364.537 127.848 345.548 159.034 279.983C190.22 214.419 253.378 228.789 293.748 203C353.397 164.896 328.948 135.076 403.325 130.27C496.971 124.218 502.275 222.017 549.127 222.017C552.209 222.017 625.167 192.702 635.846 272.954C641.224 313.37 549.127 375.002 549.127 375.002C549.127 375.002 510.797 409.745 508.693 426.902C499.865 498.852 518.274 581.26 311.972 619.197C285.29 624.104 240.987 606.356 216.544 573.572C197.396 547.887 120.582 566.11 113.412 481.669C109.798 439.108 150.077 364.537 150.077 364.537Z" fill="#D946EF"/>
<path d="M287.686 307.491C288.382 307.081 289.279 307.312 289.689 308.007L291.345 310.801C297.92 321.832 300.55 325.415 303.346 327.034C305.643 328.365 308.018 327.952 312.367 325.402L312.947 325.053C315.682 323.349 328.196 314.753 333.034 311.666C333.715 311.232 334.62 311.432 335.054 312.113C335.489 312.794 335.289 313.698 334.608 314.132L333.863 314.612C328.471 318.107 316.359 326.425 314.215 327.707C308.951 330.855 305.538 331.562 302.118 329.7L301.879 329.565C298.205 327.436 295.346 323.352 287.17 309.494C286.759 308.798 286.991 307.901 287.686 307.491Z" fill="#FACC15"/>
<path d="M311.374 324.398C312.175 324.291 312.911 324.853 313.018 325.654C313.516 329.375 314.709 333.106 316.604 336.851C316.968 337.572 316.68 338.452 315.959 338.816C315.238 339.181 314.358 338.892 313.993 338.171C311.955 334.141 310.661 330.097 310.119 326.042C310.011 325.241 310.574 324.505 311.374 324.398Z" fill="#FACC15"/>
<path fill-rule="evenodd" clip-rule="evenodd" d="M481.778 413.737C481.542 414.334 481.025 415.161 480.425 415.943L480.942 416.48L481.542 417.119L481.676 417.247C481.734 417.299 481.78 417.33 481.813 417.339C482.007 417.367 482.142 417.546 482.116 417.741C482.088 417.932 481.91 418.07 481.716 418.042C481.54 418.038 480.902 417.789 480.141 417.171C480.003 417.059 479.866 416.93 479.726 416.788C479.288 417.278 478.844 417.699 478.461 417.96C477.898 418.349 477.41 418.38 477.177 418.222C476.947 418.069 476.727 417.554 477.1 416.513C477.159 416.324 477.36 416.225 477.546 416.284C477.732 416.343 477.834 416.541 477.776 416.729C477.719 416.922 477.711 417.099 477.71 417.24L477.927 417.093C478.003 417.038 478.081 416.976 478.153 416.904C478.415 416.647 478.706 416.334 478.999 415.996C478.535 415.456 478.062 414.823 477.679 414.092C477.493 413.735 477.344 413.357 477.203 412.959C477.105 412.737 477.206 412.476 477.429 412.377C477.651 412.279 477.912 412.381 478.01 412.603C478.436 413.496 478.981 414.265 479.518 414.924L479.697 415.139C480.187 414.499 480.607 413.851 480.798 413.357C480.904 413.088 481.209 412.954 481.479 413.057C481.751 413.164 481.885 413.468 481.778 413.737Z" fill="#FACC15"/>
<path fill-rule="evenodd" clip-rule="evenodd" d="M264.137 229.21L263.245 229.049C258.267 228.123 254.45 226.987 247.319 224.514C246.501 224.231 246.068 223.338 246.351 222.52C246.635 221.703 247.528 221.27 248.345 221.553L250.122 222.165C256.378 224.299 259.888 225.278 264.681 226.123C280.811 228.967 292.887 220.687 293.875 204.894C293.929 204.03 294.673 203.373 295.537 203.427C296.401 203.481 297.058 204.225 297.004 205.089C295.892 222.851 282.019 232.363 264.137 229.21Z" fill="#00160A"/>
<path fill-rule="evenodd" clip-rule="evenodd" d="M304.44 246.123L305.339 248.123L307.391 248.712C307.502 248.744 307.566 248.86 307.534 248.97C307.524 249.005 307.506 249.036 307.481 249.061L305.922 250.613L306.009 252.846C306.014 252.961 305.924 253.058 305.809 253.063C305.77 253.064 305.731 253.055 305.697 253.035L303.933 252.03C303.877 251.999 303.811 251.994 303.752 252.018L301.865 252.767C301.758 252.81 301.636 252.758 301.593 252.65C301.579 252.614 301.575 252.574 301.582 252.536L301.979 250.337L300.652 248.583C300.582 248.491 300.6 248.36 300.692 248.291C300.721 248.269 300.754 248.255 300.789 248.25L302.903 247.953L304.072 246.098C304.134 246 304.263 245.971 304.36 246.032C304.395 246.054 304.423 246.086 304.44 246.123Z" fill="#00160A"/>
<path d="M510.589 195.858C511.395 195.801 512.095 196.407 512.152 197.213C512.21 198.019 511.603 198.719 510.797 198.776C505.025 199.188 500.492 201.425 498.479 206.958C498.357 207.291 498.257 207.612 498.176 207.918L498.121 208.127L498.21 207.943C500.745 202.766 505.635 199.169 511.302 198.256L511.673 198.2C512.473 198.089 513.212 198.647 513.324 199.447C513.435 200.247 512.877 200.986 512.077 201.098C506.813 201.832 502.309 205.331 500.345 210.35L500.218 210.687C499.284 213.251 497.043 214.481 495.601 212.286C494.721 210.947 494.779 208.57 495.73 205.957C498.142 199.33 503.676 196.351 510.589 195.858Z" fill="#FACC15"/>
<path d="M503.927 184.961C504.732 184.904 505.432 185.51 505.49 186.316C505.547 187.122 504.94 187.822 504.135 187.879C494.953 188.534 486.902 194.497 483.699 203.298C482.749 205.907 482.573 208.138 482.913 209.267L482.954 209.393L483.019 209.3C483.182 209.052 483.366 208.697 483.547 208.235L483.624 208.031C487.007 198.735 495.211 192.224 504.833 190.881C505.634 190.769 506.373 191.327 506.484 192.127C506.596 192.927 506.038 193.666 505.238 193.778C496.82 194.953 489.626 200.571 486.527 208.62L486.372 209.032C485.118 212.479 482.404 213.968 480.67 211.329C479.481 209.52 479.564 206.105 480.95 202.298C484.552 192.402 493.604 185.698 503.927 184.961Z" fill="#FACC15"/>
<path d="M494.948 170.432C495.754 170.374 496.454 170.981 496.511 171.787C496.569 172.592 495.962 173.292 495.157 173.35C482.061 174.284 470.578 182.789 466.009 195.342C464.454 199.614 464.325 203.235 465.174 204.74L465.251 204.867C465.377 205.058 465.335 205.064 465.367 205.038L465.386 205.025C465.817 204.789 466.385 203.984 466.904 202.65L467.007 202.376C471.674 189.554 482.988 180.576 496.259 178.723C497.059 178.611 497.798 179.169 497.909 179.97C498.021 180.77 497.463 181.509 496.663 181.62C484.613 183.302 474.319 191.369 469.926 202.919L469.756 203.376C468.132 207.837 464.876 209.624 462.806 206.474C461.263 204.125 461.375 199.52 463.26 194.341C468.227 180.694 480.712 171.447 494.948 170.432Z" fill="#FACC15"/>
<path d="M478.92 156.777C479.713 156.622 480.481 157.138 480.636 157.931C480.792 158.724 480.275 159.492 479.482 159.648C467.627 161.969 458.093 171.024 455.328 183.001C454.392 187.055 454.675 190.351 455.594 191.608L455.716 191.766L455.725 191.788L455.742 191.774C456.071 191.478 456.455 190.72 456.754 189.544L456.816 189.286C459.66 176.968 469.051 167.433 481.047 164.231C481.827 164.023 482.629 164.486 482.837 165.267C483.045 166.047 482.582 166.849 481.801 167.057C470.994 169.942 462.503 178.451 459.778 189.477L459.666 189.944C458.664 194.289 455.784 196.362 453.451 193.612C451.744 191.601 451.326 187.333 452.478 182.343C455.505 169.232 465.942 159.318 478.92 156.777Z" fill="#FACC15"/>
<path d="M316.778 337.173L317.622 336.866C325.603 334.002 332.336 332.739 334.046 334.479C335.546 336.005 336.883 338.769 338.15 342.823C338.391 343.594 337.962 344.414 337.191 344.655C336.42 344.896 335.599 344.466 335.358 343.695C334.262 340.19 333.144 337.83 332.087 336.664L332.043 336.618L332.005 336.62C331.805 336.579 331.505 336.558 331.123 336.566C330.28 336.582 329.127 336.731 327.751 337.003C324.921 337.564 321.343 338.607 317.79 339.918C311.85 342.109 306.901 344.684 304.167 347.01C303.163 347.864 301.33 345.485 303.094 344.123C306.267 341.671 311.079 339.275 316.778 337.173Z" fill="#FACC15"/>
<path d="M312.762 309.541C312.762 314.42 317.921 319.702 319.019 320.003C319.798 320.216 306.374 328.963 306.374 328.963C301.524 329.601 298.676 325.501 298.676 319.393C298.676 318.586 312.762 308.733 312.762 309.541Z" fill="#FACC15"/>
<path fill-rule="evenodd" clip-rule="evenodd" d="M296.933 312.105C298.632 311.775 299.786 310.359 299.511 308.943C299.236 307.527 297.635 306.647 295.936 306.977C294.237 307.307 293.082 308.723 293.357 310.139C293.633 311.555 295.233 312.435 296.933 312.105Z" fill="#FFB61D"/>
<path d="M470.072 148.666C470.868 148.527 471.626 149.06 471.764 149.856C471.903 150.652 471.37 151.409 470.574 151.548C466.789 152.207 462.972 154.498 459.037 158.142C453.927 162.874 450.552 169.412 448.691 178.13C447.191 185.154 448.575 193.93 452.494 201.645C456.953 210.423 464.841 212.592 474.038 214.272C483.48 215.996 486.089 214.931 495.011 211.76L495.832 211.461C497.051 211 502.752 208.769 504.123 208.354C507.007 207.482 508.975 207.555 510.402 209.076C510.954 209.665 510.925 210.59 510.336 211.143C509.784 211.661 508.936 211.668 508.376 211.181L508.268 211.077C507.847 210.629 506.977 210.577 505.226 211.079L504.97 211.155C503.651 211.553 497.469 213.98 496.668 214.272C487.032 217.789 483.764 219.022 473.513 217.15C463.354 215.294 454.735 212.517 449.886 202.97C445.671 194.673 444.186 185.217 445.83 177.519C447.816 168.215 451.494 161.139 457.049 155.996C461.398 151.969 465.73 149.422 470.072 148.666Z" fill="#FACC15"/>
<path d="M538.882 265.052C530.543 264.626 523.977 271.066 523.908 279.711C523.85 286.995 527.953 292.993 533.589 294.155C535.868 294.624 540.244 294.059 543.489 292.239C548.417 289.596 552.184 284.163 552.66 279.533C553.434 271.99 547.328 265.484 538.882 265.052Z" fill="#FACC15"/>
<path d="M387.783 263.529C390.446 268.909 394.582 281.334 392.793 281.274C387.824 281.108 381.176 273.471 376.526 263.146L376.159 262.315C372.099 252.94 369.668 247.051 372.491 245.922C375.412 244.755 382.286 252.427 387.783 263.529Z" fill="#FACC15"/>
<path fill-rule="evenodd" clip-rule="evenodd" d="M372.491 245.805C375.412 244.638 382.387 251.959 387.884 263.061C390.547 268.441 392.354 273.601 392.826 277.302C392.826 277.302 383.831 258.349 378.344 251.407C376.237 248.74 372.491 245.805 372.491 245.805Z" fill="#E7EAEE"/>
<path d="M370.959 293.537C371.173 292.758 371.978 292.3 372.757 292.515C373.536 292.729 373.994 293.534 373.78 294.313C373.504 295.315 369.63 297.943 361.176 303.154L355.84 306.419C345.306 312.832 338.277 316.935 337.398 316.935C331.582 316.935 326.341 311.449 322.515 302.792C319.174 295.233 317.44 286.235 318.223 280.338C318.467 278.498 324.599 273.734 334.066 267.351L335.422 266.442C343.798 260.863 350.957 256.724 353.547 256.202C354.339 256.042 355.111 256.554 355.27 257.346C355.37 257.842 332.284 277.302 330.028 290.218C328.501 298.963 334.274 313.869 337.14 314.004L337.398 314.01C337.166 314.01 337.24 313.956 337.267 313.94L337.531 313.804C337.725 313.703 337.956 313.578 338.222 313.432L339.439 312.751C339.904 312.488 340.423 312.19 340.991 311.863L342.442 311.019C345.214 309.401 348.672 307.341 352.199 305.207L355.554 303.167C359.633 300.675 363.319 298.377 366.089 296.592L367.516 295.665C368.4 295.085 369.147 294.584 369.744 294.168L369.96 294.016C370.29 293.784 370.563 293.584 370.777 293.42C370.777 293.42 371.017 293.325 370.959 293.537Z" fill="#FACC15"/>
<path fill-rule="evenodd" clip-rule="evenodd" d="M373.859 264.347C370.324 256.499 368.763 249.307 369.946 244.952C367.808 245.632 365.134 246.853 362.48 248.376C358.952 250.4 356.153 252.662 356.087 253.153C355.405 258.286 358.022 268.273 362.372 277.176C367.024 286.699 372.558 292.816 376.843 292.816C377.253 292.816 378.427 292.574 379.603 292.163C381.277 291.578 382.845 290.727 384.129 289.611C384.768 289.056 385.429 288.429 386.12 287.729L386.952 286.869C387.442 286.35 387.949 285.791 388.739 284.906L389.84 283.677L389.887 283.625C384.376 281.611 378.611 274.512 374.299 265.306L373.859 264.347ZM353.187 252.768C353.642 249.343 366.463 241.941 372.314 241.463C372.559 241.309 372.821 241.176 373.1 241.065C378.167 239.04 385.888 247.713 392.081 259.916L392.505 260.763C395.301 266.409 397.208 271.857 397.728 275.932C398.349 280.801 396.939 284.03 393.242 284.195C393.143 284.579 392.892 284.899 392.56 285.093L392.503 285.122L392.359 285.266C392.214 285.415 392.043 285.6 391.78 285.893L389.962 287.921C389.303 288.648 388.835 289.141 388.202 289.783C387.462 290.533 386.748 291.211 386.048 291.819C383.216 294.279 379.03 295.742 376.843 295.742C375.683 295.742 374.51 295.472 373.334 294.957C372.079 296.267 368.215 298.815 361.176 303.154L355.84 306.419C345.306 312.832 338.277 316.935 337.398 316.935C335.407 316.935 333.482 316.292 331.659 315.098C331.642 315.11 331.625 315.121 331.607 315.132L330.863 315.611C328.271 317.291 324.127 320.086 320.284 322.677L320.283 322.678L320.043 322.839C320.541 326.391 321.672 329.953 323.442 333.527C329.724 331.584 334.7 330.928 336.136 332.389C337.636 333.915 338.973 336.679 340.24 340.733C340.481 341.504 340.051 342.324 339.28 342.565C338.509 342.806 337.689 342.377 337.448 341.606C336.352 338.1 335.234 335.74 334.176 334.574L334.132 334.528L334.095 334.53C333.895 334.489 333.594 334.469 333.212 334.476C332.369 334.492 331.217 334.641 329.841 334.914C327.01 335.475 323.433 336.518 319.88 337.828C311.758 340.824 305.49 344.537 304.201 347.35C303.824 348.173 303.872 349.378 304.323 351.224L304.407 351.556C304.475 351.817 304.545 352.077 304.638 352.404L305.166 354.274L305.189 354.358C305.203 354.415 305.219 354.475 305.237 354.545C305.44 355.326 304.971 356.125 304.189 356.328C303.407 356.531 302.609 356.061 302.406 355.28L302.146 354.334L301.713 352.807C301.664 352.626 301.619 352.46 301.575 352.29C300.89 349.648 300.78 347.796 301.542 346.132C302.833 343.312 306.873 340.39 312.499 337.734L311.275 334.573L310.973 333.774C310.51 332.527 309.97 330.838 309.64 329.605C305.245 331.973 302.184 332.37 299.117 330.699L298.879 330.565C298.272 330.214 297.688 329.809 297.099 329.316L279.956 339.728C280.115 340.072 280.276 340.418 280.438 340.767C281.208 342.417 279.851 343.585 277.77 344.493L277.546 344.589C275.757 345.33 274.143 345.499 273.182 344.445C269.196 340.069 264.976 329.603 267.246 327.209C267.682 326.749 268.833 326.065 271.009 324.923L271.183 324.833C271.227 324.803 271.274 324.774 271.322 324.747L287.347 316.065C287.384 316.045 287.421 316.027 287.459 316.011C286.469 314.374 285.384 312.552 284.185 310.519C284.002 310.224 283.935 309.88 283.981 309.548C284.01 309.338 284.085 309.132 284.206 308.948C284.272 308.847 284.352 308.753 284.444 308.67C287.738 305.545 292.228 302.287 297.859 298.779L298.542 298.356C300.979 296.853 305.922 294.034 310.122 291.639C313.379 289.781 316.189 288.178 317.035 287.643L317.24 287.507C317.546 287.283 317.91 287.196 318.26 287.233C317.981 284.696 317.957 282.339 318.223 280.338C318.467 278.498 324.599 273.734 334.066 267.351L335.422 266.442C343.357 261.156 350.201 257.164 353.101 256.314C353.023 255.004 353.049 253.811 353.187 252.768ZM353.422 259.28C350.58 260.319 343.465 264.543 335.702 269.777L334.458 270.62C330.964 273.004 327.737 275.328 325.299 277.223L324.621 277.754C323.533 278.616 322.653 279.359 322.015 279.955C321.695 280.254 321.442 280.509 321.264 280.713L321.139 280.86C321.112 280.888 321.105 280.877 321.115 280.785L321.123 280.723C321.12 280.747 321.117 280.767 321.115 280.785L321.077 281.099C319.67 293.443 328.596 313.602 337.14 314.004L337.341 314.009C337.357 314.01 337.377 314.01 337.398 314.01L337.341 314.009C337.179 314 337.243 313.954 337.268 313.94L337.531 313.804C337.725 313.702 337.956 313.578 338.222 313.432L339.439 312.751C339.904 312.488 340.423 312.19 340.991 311.863L342.443 311.019C345.214 309.401 348.672 307.341 352.199 305.207L355.554 303.167C359.633 300.675 363.319 298.377 366.089 296.592L367.516 295.665C368.4 295.085 369.147 294.584 369.744 294.168L369.96 294.016C370.277 293.793 370.541 293.6 370.751 293.44C366.983 290.675 363.273 285.569 359.98 278.941L359.743 278.46C356.569 271.962 354.274 264.926 353.422 259.28ZM318.663 290.069C317.608 290.734 314.494 292.511 311.03 294.489C306.925 296.833 302.328 299.459 300.077 300.846C294.761 304.124 290.474 307.162 287.291 310.022L288.345 311.801C292.958 319.54 295.629 323.613 297.778 325.914C297.064 324.221 296.694 322.072 296.694 319.377C296.694 319.253 296.71 319.133 296.739 319.018C296.597 318.457 296.797 317.842 297.291 317.479L298.287 316.738C298.885 316.287 299.868 315.535 300.986 314.681C303.432 312.812 306.523 310.449 307.626 309.659C311.095 307.175 313.652 305.78 315.98 305.297C317.092 305.065 317.956 305.723 318.206 306.742L318.247 306.927C318.306 307.231 318.316 307.529 318.315 308.18L318.314 308.387C318.302 310.821 318.543 312.225 319.574 313.848C320.28 314.958 321.316 315.971 322.76 316.878C322.911 316.973 323.039 317.091 323.142 317.225C325.472 315.66 327.654 314.205 329.264 313.162C326.727 310.706 324.442 307.151 322.515 302.792C320.721 298.731 319.39 294.256 318.663 290.069ZM394.826 276.302C394.354 272.601 392.547 267.441 389.884 262.061C384.387 250.959 377.106 242.614 374.185 243.781C371.362 244.909 372.099 252.94 376.159 262.315L376.526 263.146C381.176 273.471 387.824 281.108 392.793 281.274C394.582 281.334 395.281 279.873 394.826 276.302ZM288.97 318.484C291.508 322.586 293.362 325.297 294.977 327.182L278.725 337.053C277.06 333.403 275.571 330.007 274.126 326.556L288.741 318.638C288.823 318.593 288.9 318.541 288.97 318.484ZM320.636 334.45C319.059 331.188 317.97 327.918 317.371 324.64C315.271 326.053 313.444 327.276 312.269 328.04C312.47 329.049 313.218 331.444 313.862 333.147L315.063 336.237L315.177 336.539C316.357 336.041 317.59 335.555 318.867 335.084L319.712 334.776C320.022 334.665 320.33 334.556 320.636 334.45ZM320.584 318.946C319.086 317.908 317.937 316.726 317.105 315.416C315.758 313.296 315.404 311.486 315.389 308.751L315.388 308.506L315.181 308.584C313.698 309.159 311.928 310.201 309.705 311.771L309.33 312.038C308.271 312.796 305.258 315.099 302.827 316.956L302.826 316.957C301.475 317.989 300.305 318.884 299.75 319.299L299.619 319.395C299.622 324.262 300.837 326.495 303.096 327.578L303.277 327.661C303.815 327.899 304.2 328.019 305.297 328.32C305.319 328.326 305.341 328.332 305.362 328.339C306.501 327.956 307.807 327.316 309.366 326.402L309.947 326.053C311.235 325.25 314.691 322.919 318.494 320.355C319.183 319.891 319.883 319.418 320.584 318.946ZM271.541 327.955L271.765 328.488C273.319 332.172 274.933 335.82 276.765 339.798L277.478 341.342C277.244 341.498 276.937 341.665 276.599 341.813C276.114 342.024 275.622 342.173 275.252 342.223L275.134 342.235L274.956 342.021C273.571 340.316 271.964 337.42 270.803 334.54C270.184 333.006 269.744 331.599 269.545 330.517C269.464 330.077 269.427 329.707 269.43 329.426L269.439 329.241C269.442 329.196 269.442 329.173 269.431 329.17L269.474 329.14C269.722 328.97 270.353 328.6 271.292 328.09L271.541 327.955ZM291.718 324.732C291.152 324.155 290.226 324.147 289.65 324.712C288.635 325.707 287.214 326.634 284.731 328.012L282.204 329.414C281.537 329.795 280.99 330.123 280.495 330.444C280.081 330.712 279.712 330.971 279.38 331.228C278.74 331.722 278.623 332.64 279.117 333.28C279.611 333.919 280.529 334.037 281.168 333.543C281.432 333.339 281.737 333.125 282.087 332.898C282.41 332.688 282.765 332.471 283.176 332.231L283.982 331.77L286.549 330.348C289.014 328.964 290.5 327.976 291.698 326.801C292.275 326.235 292.284 325.309 291.718 324.732Z" fill="#00160A"/>
<path d="M259 473.27C266.315 514.051 293.729 544.709 328.712 551.937C335.133 553.264 346.253 553.438 357.767 551.948C372.602 550.028 387.04 545.624 399.737 538.486C434.618 519.739 461.085 481.479 464.516 447.987C467.529 418.567 456.29 391.389 435.944 372C435.944 372 372.028 403.393 340.653 421.237C313.351 436.764 259 473.27 259 473.27Z" fill="#FACC15"/>
<path d="M407.851 351.658C394.74 345.19 378.315 340.08 362.208 339.256C303.135 336.236 256.676 383.427 256.191 444.295C256.191 444.295 322.123 402.3 356.375 382.038C373.416 371.957 407.851 351.658 407.851 351.658Z" fill="#FACC15"/>
<path fill-rule="evenodd" clip-rule="evenodd" d="M529.355 320.637C529.156 330.807 518.395 347.733 501.096 366.887C488.565 380.762 473.984 394.174 461.758 403.212L460.997 403.769L461.502 406.015C464.475 419.045 468.356 433.21 466.89 447.495C463.331 482.166 436.212 521.281 400.375 540.5C387.305 547.832 372.448 552.354 357.208 554.322L355.755 554.502C344.392 555.84 333.518 555.618 326.873 554.248C301.08 548.93 279.243 530.9 266.041 504.806C265.997 504.718 265.962 504.628 265.937 504.537C264.199 505.528 261.86 506.636 260.792 506.999L257.866 507.987C226.334 518.593 195.073 527.467 182.303 521.928C177.441 519.82 175.779 515.766 177.813 510.318C179.788 505.025 185.267 498.203 194.458 489.714L194.963 489.249C203.673 481.265 223.015 466.676 252.989 445.482L252.996 445.092C254.459 382.291 303.241 334.415 364.559 338.323C383.314 339.518 398.25 346.183 405.71 350.276L408.991 348.515C439.761 332.063 464.45 320.497 483.287 313.575C514.266 302.191 529.586 307.514 529.355 320.637ZM484.296 320.321C449.656 333.05 394.912 361.679 318.691 407.73L316.374 409.131C257.023 445.06 217.722 472.356 196.94 491.406L195.916 492.352L194.945 493.262C179.345 508.001 176.58 516.258 183.467 519.245C195.256 524.357 226.914 515.738 257.918 505.569L260.792 504.621C263.557 503.705 265.391 503.179 266.526 502.937C266.575 502.901 266.629 502.869 266.686 502.84C267.074 502.644 267.508 502.637 267.883 502.784C267.964 502.8 268.017 502.825 268.045 502.86C268.297 502.997 268.512 503.209 268.651 503.485C281.468 528.817 302.587 544.254 327.464 549.383C333.922 550.714 344.816 550.909 356.153 549.507L356.834 549.421C371.723 547.498 386.224 545.084 398.968 537.935C433.988 519.154 460.522 480.883 463.98 447.196C465.458 432.799 463.572 418.667 458.558 405.514C458.144 405.804 457.733 406.087 457.326 406.365C456.556 406.89 456.844 406.04 458.188 403.814C458.259 403.524 458.42 403.26 458.65 403.061L459.064 402.405C459.209 402.177 459.361 401.939 459.521 401.691L461.255 400.229C477.594 386.409 490.151 374.642 498.925 364.926L499.927 363.812C516.161 345.644 526.253 329.597 526.419 320.583C526.602 310.695 513.556 309.569 484.296 320.321ZM337.418 505.301C341.342 517.296 335.405 525.011 324.954 525.41C315.297 525.778 306.503 519.693 306.951 511.046C307.339 503.573 312.456 495.584 318.756 492.65C326.375 489.102 333.525 493.406 337.418 505.301ZM320.299 495.965C315.258 498.312 310.922 505.082 310.603 511.236C310.286 517.364 317.06 522.052 324.814 521.756C332.921 521.446 337.083 516.039 333.942 506.439C330.672 496.443 325.699 493.45 320.299 495.965ZM417.211 480.859C422.219 490.321 420.908 499.617 413.208 503.784L412.992 503.897L412.881 504.009C402.555 514.234 389.655 515.474 381.244 508.063L380.955 507.804C371.266 498.928 373.574 483.678 388.993 471.723C398.915 464.03 411.036 469.189 417.211 480.859ZM390.913 474.2C376.915 485.053 374.948 498.05 383.072 505.493C388.899 510.83 397.509 511.126 405.55 505.945L405.707 505.84L405.648 505.829C405.092 505.681 404.645 505.232 404.518 504.647L404.493 504.498C404.391 503.638 405.006 502.859 405.865 502.757C407.831 502.524 409.537 502.049 410.984 501.37L411.182 501.274L411.421 501.026C412.365 500.032 413.286 498.952 414.179 497.783L414.476 497.39C414.811 496.942 415.34 496.723 415.86 496.765L415.9 496.77L415.921 496.731C417.798 493.02 417.354 487.992 414.605 482.64L414.441 482.325C409.071 472.177 399.033 467.905 390.913 474.2ZM484.123 361.725C483.317 364.587 480.866 368.514 477.108 373.164C470.557 381.271 460.716 390.708 452.114 397.16L454.022 395.062C454.003 395.045 453.987 395.023 453.974 394.997L453.315 393.788C449.01 385.93 444.215 378.18 436.465 371.862C416.404 380.133 393.401 391.44 372.445 403.262L365.575 407.145C314.99 435.799 288.376 452.955 259.916 474.044C260.991 478.881 262.344 483.602 263.965 488.176C264.22 488.894 260.896 491.58 260.287 491.249C254.61 495.053 245.72 497.816 240.658 497.959C235.725 498.099 232.875 496.102 234.344 492.121C235.572 488.79 240.198 484.04 248.524 477.673L249.473 476.953L251.392 475.511C282.727 452.052 313.748 433.014 371.007 400.714L373.404 399.369C412.676 377.448 458.153 357.698 478.983 355.876C483.265 355.501 485.207 357.871 484.123 361.725ZM256.106 476.882L249.541 481.836C243.684 486.277 239.461 489.561 237.181 491.668L237.013 491.824C234.229 494.436 237.38 495.126 240.575 495.035C245.415 494.898 252.828 491.228 259.103 487.888C257.944 484.295 256.943 480.622 256.106 476.882ZM358.799 461C359.582 461.199 360.056 461.995 359.857 462.778C359.658 463.56 358.863 464.034 358.08 463.835C354.146 462.837 351.823 463.22 351.069 464.279C350.569 464.982 350.846 466.18 351.781 466.945C352.512 467.543 353.485 467.829 354.154 467.683C354.736 467.556 355.063 467.107 355.063 465.984C355.063 465.176 355.717 464.521 356.525 464.521C357.333 464.521 357.988 465.176 357.988 465.984C357.988 468.427 356.766 470.108 354.777 470.541C353.177 470.889 351.314 470.342 349.929 469.209C347.884 467.537 347.216 464.648 348.685 462.583C350.296 460.32 353.826 459.737 358.799 461ZM294.548 455.63C296.804 456.306 297.775 458.038 298.081 460.637L298.112 460.918L298.149 461.346C298.154 461.417 298.159 461.49 298.164 461.569L298.241 463.053L298.264 463.388C298.276 463.535 298.289 463.655 298.304 463.762L298.343 463.986L298.367 464.084L298.408 464.12C298.859 464.562 298.979 465.255 298.687 465.828L298.612 465.957C298.174 466.636 297.269 466.832 296.59 466.394C295.656 465.791 295.444 465.171 295.331 463.392L295.238 461.651C295.227 461.493 295.215 461.357 295.2 461.203C295.034 459.499 294.619 458.705 293.708 458.432C291.153 457.667 289.687 458.449 289.223 460.156C288.809 461.678 289.407 463.277 290.456 463.722L290.721 463.82C291.406 464.113 291.769 464.884 291.538 465.609C291.293 466.379 290.47 466.804 289.7 466.558C286.915 465.67 285.592 462.361 286.4 459.389C287.302 456.071 290.439 454.399 294.548 455.63ZM400.076 433.233C404.127 438.927 403.374 446.173 396.875 449.452C396.154 449.815 395.274 449.526 394.91 448.805C394.546 448.083 394.836 447.204 395.557 446.84C400.262 444.466 400.799 439.297 397.692 434.929C394.674 430.685 390.472 430.218 387.584 434.804C384.523 439.665 384.746 442.519 386.95 443.804C388.699 444.824 391.517 444.61 392.291 443.776L392.366 443.684C392.835 443.026 393.748 442.872 394.406 443.341C395.064 443.809 395.218 444.722 394.749 445.38C393.123 447.665 388.483 448.084 385.476 446.331C381.626 444.086 381.258 439.36 385.109 433.245C389.232 426.696 395.958 427.443 400.076 433.233ZM339.432 424.846C340.193 424.846 340.817 425.426 340.888 426.168L340.895 426.308C340.895 426.566 341.134 426.854 341.993 427.483L342.805 428.066C343.69 428.712 344.117 429.112 344.521 429.75C345.443 431.208 345.966 432.693 345.966 434.439C345.966 438.909 339.25 444.989 331.92 447.695C323.132 450.938 315.933 448.533 313.974 439.516C313.802 438.727 314.303 437.948 315.093 437.776C315.882 437.605 316.661 438.105 316.833 438.895C318.353 445.893 323.602 447.646 330.907 444.95C337.214 442.622 343.04 437.348 343.04 434.439C343.04 433.314 342.698 432.341 342.048 431.314L341.96 431.19C341.811 431.002 341.578 430.799 341.159 430.488L340.194 429.792C338.591 428.61 337.97 427.812 337.97 426.308C337.97 425.501 338.624 424.846 339.432 424.846ZM346.298 343.774L345.375 343.877C295.462 349.88 258.019 389.801 255.977 443.372L261.332 439.604C276.704 428.814 294.546 416.489 314.859 402.629L318.817 400.237C330.634 393.107 341.933 386.398 352.718 380.104C352.521 379.759 352.466 379.335 352.6 378.928C353.354 376.626 354.051 375.079 355.328 373.53C359.324 368.682 364.799 366.314 368.678 369.358C369.06 369.658 369.253 370.11 369.237 370.56L372.683 368.594C383.534 362.417 393.802 356.712 403.492 351.472L399.707 350.395C394.094 348.815 387.111 346.941 380.155 345.499C380.219 350.128 376.754 353.824 370.998 356.366C366.104 358.527 359.728 359.69 355.194 359.42C346.712 358.914 341.938 351.474 346.298 343.774ZM433.854 407.295C437.433 417.075 434.48 425.967 425.542 425.909C412.808 425.826 400.373 414.707 402.383 404.747C403.28 400.303 406.621 396.372 412.43 394.411C421.707 391.278 430.21 397.341 433.854 407.295ZM413.366 397.182C408.565 398.803 405.945 401.886 405.251 405.325C403.655 413.231 414.482 422.912 425.561 422.984C431.908 423.025 434.09 416.453 431.106 408.301C427.949 399.674 420.89 394.641 413.366 397.182ZM305.811 362.555L305.915 362.706L306.619 363.826C306.964 364.394 307.273 364.952 307.567 365.553C310.806 372.176 310.722 380.859 305.24 392.912C302.757 398.372 296.43 405.711 290.904 410.09C283.85 415.681 278.582 416.951 272.295 416.261L270.429 416.041L270.202 416.021C270.077 416.012 269.997 416.011 269.91 416.014L269.782 416.019C269.685 416.024 269.651 416.019 269.645 416.006L269.645 415.996L269.598 416.072C269.174 416.68 268.35 416.88 267.688 416.512C266.982 416.119 266.728 415.229 267.121 414.523C267.646 413.578 268.525 413.15 269.643 413.097C269.94 413.083 270.253 413.093 270.626 413.124L271.062 413.167L272.269 413.313C277.995 414.007 282.552 412.977 289.087 407.797C294.277 403.684 300.309 396.688 302.577 391.701C307.708 380.422 307.783 372.653 304.939 366.838C304.749 366.451 304.552 366.083 304.338 365.714L304.032 365.202L303.418 364.232C302.989 363.548 303.196 362.645 303.88 362.216C304.522 361.814 305.355 361.97 305.811 362.555ZM479.238 358.79C469.887 359.608 455.229 364.227 438.33 371.098L438.824 371.535C443.527 375.754 453.016 385.76 455.986 392.897L458.944 389.616C466.244 381.497 471.54 375.4 474.832 371.326L475.499 370.49C478.646 366.496 480.68 363.159 481.307 360.932L481.396 360.594C481.786 358.987 481.334 358.607 479.238 358.79ZM339.182 363.542C342.822 365.302 344.3 369.22 341.905 372.772C341.453 373.442 340.544 373.619 339.874 373.168C339.204 372.716 339.027 371.807 339.479 371.137C340.796 369.183 340.053 367.212 337.908 366.175C335.65 365.083 333.175 365.711 331.898 368.095C330.721 370.292 330.64 373.266 331.58 375.213C332.405 376.923 333.605 377.251 335.437 375.872C336.083 375.386 337 375.515 337.485 376.161C337.971 376.806 337.842 377.723 337.197 378.209C333.858 380.722 330.554 379.82 328.945 376.485C327.596 373.688 327.704 369.729 329.319 366.714C331.38 362.867 335.581 361.801 339.182 363.542ZM357.585 375.391C356.903 376.218 356.416 377.091 355.964 378.212C359.733 376.022 363.438 373.883 367.08 371.794L366.974 371.732L366.872 371.659C364.639 369.907 360.702 371.609 357.585 375.391ZM351.347 343.326L350.068 343.416L349.982 343.524C344.926 349.914 346.873 355.101 353.779 355.837C358.738 356.366 371.903 352.687 373.448 351.395C374.952 350.138 376.854 347.245 377.147 344.902C372.679 344.062 368.308 343.444 364.409 343.245C360.425 343.041 356.496 343.046 352.633 343.25L351.347 343.326Z" fill="#00160A"/>
<path d="M483.409 320.683C514.388 309.3 513.678 312.677 484.418 323.429C449.778 336.159 319.021 415.919 319.021 415.919C259.669 451.848 255.23 446.302 312.757 411.34L316.303 409.189C316.971 408.785 382.467 367.448 429.268 345.333C434.534 342.844 479.882 321.979 483.409 320.683Z" fill="#FACC15"/>
<path fill-rule="evenodd" clip-rule="evenodd" d="M536.899 264.01C527.3 263.519 519.807 270.979 519.729 280.739C519.664 288.917 524.356 295.86 531.078 297.246C532.849 297.611 537.956 297.611 542.387 295.125L542.754 294.923C548.341 291.76 552.141 285.742 552.649 280.791C553.55 272.014 546.499 264.501 536.899 264.01ZM521.819 280.756C521.819 280.693 521.82 280.63 521.821 280.567C521.881 280.548 521.94 280.523 521.997 280.492C529.523 276.438 534.169 273.348 536.024 271.117C537.249 269.645 537.847 267.983 537.798 266.178C539.062 266.318 540.267 266.595 541.396 266.992C541.389 267.046 541.387 267.102 541.389 267.158C541.48 269.756 540.788 271.832 539.316 273.449C537.624 275.308 535.574 277.076 533.244 278.743C530.752 280.526 528.077 282.1 525.401 283.448C524.777 283.763 524.183 284.049 523.626 284.308L522.818 284.674C522.702 284.725 522.595 284.772 522.497 284.815L522.256 284.916C521.96 283.599 521.807 282.203 521.819 280.756ZM522.844 286.936C523.505 288.771 524.464 290.397 525.65 291.722L526.274 291.362C536.096 285.676 542.193 281.209 544.5 278.058C546.834 274.872 547.665 272.426 547.143 270.762C547.131 270.723 547.121 270.684 547.114 270.644C546.086 269.565 544.862 268.638 543.483 267.905C543.424 270.667 542.551 272.999 540.861 274.856C539.062 276.832 536.902 278.695 534.46 280.443C531.873 282.294 529.107 283.921 526.342 285.314C525.535 285.721 524.776 286.083 524.077 286.4L523.262 286.761L522.844 286.936ZM530.665 294.989C529.431 294.62 528.282 294.015 527.247 293.213C537.358 287.366 543.649 282.758 546.186 279.293C547.76 277.143 548.767 275.21 549.176 273.485C549.684 274.435 550.07 275.448 550.317 276.505C550.264 276.613 550.228 276.732 550.215 276.858C549.96 279.301 548.702 281.725 546.4 284.14C544.19 286.457 539.422 289.8 532.137 294.123L530.665 294.989ZM534.197 295.327C536.44 295.185 539.183 294.527 541.4 293.284C545.522 291.073 548.832 286.91 550.082 282.898C549.478 283.804 548.754 284.698 547.912 285.582C545.643 287.961 541.084 291.196 534.197 295.327ZM522.427 277.88L522.055 278.082C523.241 271.178 528.757 266.224 535.703 266.08C535.777 267.437 535.355 268.654 534.418 269.782C532.902 271.604 528.881 274.332 522.427 277.88Z" fill="#00160A"/>
<path fill-rule="evenodd" clip-rule="evenodd" d="M612.325 243.99C612.521 244.012 612.656 244.188 612.634 244.382C612.633 244.667 612.45 244.821 612.203 244.921C611.981 245.011 611.626 244.976 611.419 245.004C609.156 245.179 607.378 243.514 606.596 241.368C605.844 239.307 606.044 236.842 607.408 235.322C607.565 235.143 607.837 235.125 608.017 235.282C608.196 235.439 609.214 235.712 609.057 235.891C607.932 237.204 607.17 238.001 608.232 241.118C609.293 244.235 612.18 243.973 612.325 243.99Z" fill="#E7EAEE"/>
<path fill-rule="evenodd" clip-rule="evenodd" d="M252.07 266.306C251.475 265.898 250.662 266.049 250.254 266.644C249.846 267.238 249.997 268.051 250.591 268.46C251.245 268.908 251.822 269.322 252.331 269.707C251.783 270.144 251.235 270.644 250.665 271.213L249.51 272.386C249.002 272.898 249.006 273.725 249.518 274.233C250.03 274.741 250.857 274.737 251.365 274.225L252.751 272.824C253.315 272.275 253.843 271.816 254.375 271.434C255.556 272.605 255.915 273.463 255.935 274.316L255.935 274.535L255.941 274.669C256.008 275.327 256.564 275.841 257.241 275.841C257.962 275.841 258.547 275.256 258.547 274.535L258.546 274.278C258.522 272.948 258.053 271.683 256.789 270.237C257.624 269.988 258.564 269.849 259.705 269.789C260.425 269.751 260.979 269.137 260.941 268.417C260.904 267.696 260.289 267.143 259.569 267.181C257.588 267.284 256.049 267.614 254.678 268.242C254.105 267.774 253.456 267.282 252.724 266.762L252.07 266.306Z" fill="#00160A"/>
<path fill-rule="evenodd" clip-rule="evenodd" d="M447.757 552.476L448.663 552.48C453.727 552.527 457.683 552.983 465.135 554.179C465.99 554.317 466.571 555.121 466.434 555.975C466.297 556.83 465.493 557.411 464.638 557.274L462.196 556.89C456.03 555.943 452.477 555.61 447.757 555.61C431.379 555.61 420.924 565.862 422.693 581.587C422.79 582.447 422.171 583.222 421.311 583.319C420.451 583.416 419.675 582.797 419.578 581.937C417.588 564.252 429.599 552.476 447.757 552.476ZM460.442 558.804L460.289 558.669C460.141 558.542 459.914 558.56 459.79 558.708C459.66 558.857 459.68 559.08 459.828 559.208L459.985 559.341C460.133 559.468 460.355 559.451 460.484 559.302C460.609 559.154 460.594 558.93 460.442 558.804ZM432.042 562.081C431.48 561.629 430.658 561.719 430.206 562.281C428.382 564.551 427.052 566.763 426.223 568.922C425.416 571.022 425.141 574.551 425.351 579.597L425.401 580.662C425.439 581.382 426.053 581.936 426.774 581.898C427.494 581.86 428.047 581.245 428.009 580.525C427.732 575.254 427.968 571.663 428.661 569.859C429.387 567.97 430.579 565.987 432.242 563.917C432.694 563.355 432.605 562.533 432.042 562.081ZM446.295 557.76C446.936 557.429 447.724 557.679 448.056 558.319C448.387 558.96 448.137 559.748 447.497 560.079C444.844 561.454 442.819 563.757 441.406 567.041C439.891 570.566 438.651 573.711 437.687 576.475C437.449 577.156 436.705 577.516 436.023 577.278C435.342 577.04 434.983 576.296 435.221 575.615C436.207 572.788 437.469 569.587 439.007 566.01C440.648 562.192 443.082 559.425 446.295 557.76ZM453.888 557.692C453.413 557.149 452.587 557.095 452.045 557.57C449.865 559.48 448.19 561.217 447.018 562.792C445.854 564.356 444.491 566.695 442.914 569.825C442.589 570.469 442.848 571.254 443.492 571.579C444.136 571.904 444.922 571.645 445.246 571C446.762 567.994 448.056 565.773 449.113 564.351C450.162 562.942 451.714 561.332 453.766 559.534C454.309 559.059 454.363 558.234 453.888 557.692ZM449.12 572.44C448.577 572.915 447.752 572.861 447.277 572.318C446.801 571.776 446.856 570.951 447.398 570.475C449.45 568.678 451.002 567.068 452.051 565.658C453.109 564.237 454.403 562.016 455.918 559.009C456.243 558.365 457.028 558.106 457.672 558.431C458.316 558.756 458.575 559.541 458.251 560.185C456.673 563.314 455.31 565.654 454.147 567.218C452.974 568.793 451.3 570.53 449.12 572.44ZM439.232 558.825C438.638 558.415 437.825 558.564 437.415 559.158C434.495 563.386 432.631 566.545 431.807 568.691C430.979 570.845 430.408 573.748 430.076 577.417C430.011 578.135 430.541 578.77 431.259 578.835C431.977 578.9 432.612 578.37 432.677 577.652C432.989 574.203 433.517 571.523 434.245 569.628C434.923 567.861 436.505 565.136 438.978 561.498L439.564 560.642C439.974 560.048 439.825 559.235 439.232 558.825Z" fill="#00160A"/>
<path fill-rule="evenodd" clip-rule="evenodd" d="M414.44 551.123L415.339 553.123L417.391 553.712C417.502 553.744 417.566 553.86 417.534 553.97C417.524 554.005 417.506 554.036 417.481 554.061L415.922 555.613L416.009 557.846C416.014 557.961 415.924 558.058 415.809 558.063C415.77 558.064 415.731 558.055 415.697 558.035L413.933 557.03C413.877 556.999 413.811 556.994 413.752 557.018L411.865 557.767C411.758 557.81 411.636 557.758 411.593 557.65C411.579 557.614 411.575 557.574 411.582 557.536L411.979 555.337L410.652 553.583C410.582 553.491 410.6 553.36 410.692 553.291C410.721 553.269 410.754 553.255 410.789 553.25L412.903 552.953L414.072 551.098C414.134 551 414.263 550.971 414.36 551.032C414.395 551.054 414.423 551.086 414.44 551.123Z" fill="#00160A"/>
<path fill-rule="evenodd" clip-rule="evenodd" d="M487.11 271.138C487.591 271.564 488.19 272.332 488.72 273.164L489.402 272.861L490.208 272.516C490.37 272.442 490.474 272.384 490.506 272.337C490.599 272.164 490.814 272.098 490.988 272.19C491.158 272.282 491.227 272.496 491.134 272.669C491.071 272.833 490.618 273.347 489.777 273.851C489.625 273.942 489.456 274.027 489.276 274.11C489.586 274.689 489.829 275.25 489.944 275.699C490.116 276.361 489.979 276.831 489.751 276.996C489.528 277.159 488.969 277.189 488.118 276.483C487.961 276.364 487.937 276.141 488.056 275.986C488.175 275.832 488.396 275.803 488.553 275.922C488.715 276.042 488.878 276.109 489.011 276.158L488.946 275.905C488.921 275.814 488.89 275.72 488.846 275.627C488.694 275.294 488.5 274.913 488.282 274.522C487.617 274.773 486.859 275.001 486.041 275.111C485.643 275.164 485.236 275.175 484.814 275.171C484.572 275.187 484.361 275.003 484.345 274.76C484.329 274.517 484.513 274.307 484.756 274.291C485.74 274.196 486.65 273.947 487.453 273.668L487.716 273.573C487.282 272.894 486.816 272.277 486.417 271.929C486.201 271.737 486.179 271.405 486.368 271.186C486.563 270.968 486.894 270.946 487.11 271.138Z" fill="#00160A"/>
<path fill-rule="evenodd" clip-rule="evenodd" d="M199.555 447.942C198.189 448.031 196.023 448.379 194.252 449.081C192.737 449.683 192.737 466.033 197.915 467.337C203.064 469.054 208.693 466.781 208.021 458.031C208.009 457.848 207.86 457.35 207.691 456.78C207.442 455.945 207.147 454.953 207.164 454.565C207.234 453.191 206.873 452.033 205.921 451.306C204.894 449.13 202.882 447.727 199.555 447.942ZM198.813 463.357C196.279 461.463 196.368 452.626 199.26 452.036C201.06 453.42 202.703 455.417 203.257 459.266C202.637 461.386 201.328 462.613 200.183 463.685C200.061 463.8 199.94 463.913 199.822 464.025C199.496 463.839 199.159 463.612 198.813 463.357Z" fill="#FACC15"/>
<path fill-rule="evenodd" clip-rule="evenodd" d="M195.736 458.205C195.506 456.831 195.663 455.292 196.354 453.649C196.667 452.905 197.492 452.299 198.522 451.892C199.728 451.416 201.202 451.18 202.131 451.119C204.396 450.973 205.765 451.921 206.463 453.393C207.111 453.884 207.356 454.668 207.308 455.597C207.288 456.038 207.87 457.636 207.89 457.941C208.345 463.858 204.513 465.397 201.01 464.238C199.68 464.914 198.396 465.026 197.43 464.308C196.563 463.667 195.898 462.314 195.745 459.929C195.705 459.314 195.702 458.739 195.736 458.205ZM201.949 454.308C199.939 454.703 199.855 460.505 201.611 461.742C201.85 461.909 202.083 462.057 202.31 462.178C203.158 461.413 203.791 460.795 204.15 459.529C204.509 458.264 203.196 455.212 201.949 454.308Z" fill="#FFB61D"/>
<path fill-rule="evenodd" clip-rule="evenodd" d="M332.898 603.115C332.303 602.706 331.49 602.858 331.082 603.452C330.674 604.047 330.825 604.86 331.419 605.268C332.073 605.716 332.65 606.131 333.159 606.515C332.61 606.952 332.062 607.452 331.493 608.021L330.338 609.195C329.83 609.707 329.834 610.534 330.346 611.041C330.858 611.549 331.685 611.546 332.193 611.033L333.579 609.633C334.143 609.083 334.671 608.624 335.203 608.242C336.384 609.413 336.743 610.271 336.763 611.125L336.763 611.344L336.769 611.477C336.836 612.136 337.392 612.65 338.069 612.65C338.79 612.65 339.374 612.065 339.374 611.344L339.374 611.087C339.35 609.756 338.88 608.491 337.616 607.045C338.451 606.796 339.392 606.657 340.533 606.597C341.253 606.56 341.807 605.945 341.769 605.225C341.731 604.505 341.117 603.951 340.397 603.989C338.416 604.093 336.877 604.423 335.505 605.05C334.933 604.582 334.284 604.091 333.551 603.571L332.898 603.115Z" fill="#00160A"/>
<path fill-rule="evenodd" clip-rule="evenodd" d="M332.898 603.115C332.303 602.706 331.49 602.858 331.082 603.452C330.674 604.047 330.825 604.86 331.419 605.268C332.073 605.716 332.65 606.131 333.159 606.515C332.61 606.952 332.062 607.452 331.493 608.021L330.338 609.195C329.83 609.707 329.834 610.534 330.346 611.041C330.858 611.549 331.685 611.546 332.193 611.033L333.579 609.633C334.143 609.083 334.671 608.624 335.203 608.242C336.384 609.413 336.743 610.271 336.763 611.125L336.763 611.344L336.769 611.477C336.836 612.136 337.392 612.65 338.069 612.65C338.79 612.65 339.374 612.065 339.374 611.344L339.374 611.087C339.35 609.756 338.88 608.491 337.616 607.045C338.451 606.796 339.392 606.657 340.533 606.597C341.253 606.56 341.807 605.945 341.769 605.225C341.731 604.505 341.117 603.951 340.397 603.989C338.416 604.093 336.877 604.423 335.505 605.05C334.933 604.582 334.284 604.091 333.551 603.571L332.898 603.115Z" fill="#00160A"/>
<path fill-rule="evenodd" clip-rule="evenodd" d="M377.532 567.336L378.432 569.336L380.483 569.925C380.594 569.957 380.658 570.072 380.626 570.183C380.616 570.218 380.598 570.249 380.573 570.274L379.014 571.825L379.101 574.059C379.106 574.174 379.016 574.271 378.901 574.275C378.862 574.277 378.823 574.268 378.789 574.248L377.025 573.243C376.97 573.212 376.903 573.207 376.844 573.231L374.957 573.98C374.85 574.023 374.728 573.97 374.686 573.863C374.671 573.827 374.667 573.787 374.674 573.749L375.071 571.55L373.744 569.796C373.674 569.704 373.692 569.573 373.784 569.504C373.813 569.482 373.846 569.468 373.881 569.463L375.995 569.166L377.164 567.31C377.226 567.213 377.355 567.184 377.452 567.245C377.487 567.267 377.515 567.299 377.532 567.336Z" fill="#00160A"/>
<path fill-rule="evenodd" clip-rule="evenodd" d="M264.311 553.595L265.841 555.166L267.97 555.018C268.085 555.01 268.185 555.097 268.193 555.212C268.196 555.247 268.189 555.283 268.174 555.315L267.24 557.306L268.086 559.375C268.13 559.481 268.078 559.603 267.972 559.647C267.935 559.662 267.896 559.666 267.857 559.66L265.856 559.319C265.793 559.308 265.729 559.327 265.682 559.369L264.164 560.719C264.078 560.795 263.946 560.788 263.869 560.701C263.844 560.672 263.826 560.636 263.82 560.598L263.441 558.396L261.594 557.202C261.497 557.139 261.469 557.01 261.531 556.913C261.551 556.883 261.577 556.859 261.609 556.842L263.493 555.839L263.958 553.696C263.982 553.583 264.093 553.512 264.206 553.536C264.246 553.545 264.283 553.565 264.311 553.595Z" fill="#00160A"/>
<path fill-rule="evenodd" clip-rule="evenodd" d="M240.425 410.379L241.325 412.379L243.376 412.968C243.487 413 243.551 413.115 243.519 413.226C243.509 413.26 243.491 413.292 243.466 413.317L241.907 414.868L241.995 417.101C241.999 417.217 241.909 417.314 241.794 417.318C241.755 417.32 241.716 417.311 241.682 417.291L239.918 416.286C239.863 416.255 239.796 416.25 239.737 416.274L237.85 417.023C237.743 417.066 237.621 417.013 237.579 416.906C237.564 416.87 237.56 416.83 237.567 416.792L237.964 414.593L236.637 412.839C236.567 412.747 236.585 412.616 236.677 412.546C236.706 412.525 236.739 412.511 236.774 412.506L238.888 412.209L240.057 410.353C240.119 410.256 240.248 410.227 240.346 410.288C240.38 410.31 240.408 410.342 240.425 410.379Z" fill="#00160A"/>
<path fill-rule="evenodd" clip-rule="evenodd" d="M240.215 412.371L240.598 413.22L241.469 413.471C241.516 413.484 241.543 413.533 241.53 413.58C241.526 413.595 241.518 413.608 241.507 413.619L240.845 414.278L240.882 415.226C240.884 415.275 240.846 415.317 240.797 415.319C240.78 415.319 240.764 415.315 240.75 415.307L240 414.88C239.977 414.867 239.948 414.865 239.923 414.875L239.122 415.193C239.076 415.211 239.024 415.189 239.006 415.143C239 415.128 238.999 415.111 239.002 415.095L239.17 414.161L238.606 413.416C238.577 413.377 238.584 413.321 238.624 413.292C238.636 413.282 238.65 413.277 238.665 413.274L239.563 413.148L240.059 412.36C240.085 412.319 240.14 412.306 240.182 412.332C240.196 412.342 240.208 412.355 240.215 412.371Z" fill="#E7EAEE"/>
<path fill-rule="evenodd" clip-rule="evenodd" d="M133.44 498.123L134.339 500.123L136.391 500.712C136.502 500.744 136.566 500.86 136.534 500.97C136.524 501.005 136.506 501.036 136.481 501.061L134.922 502.613L135.009 504.846C135.014 504.961 134.924 505.058 134.809 505.063C134.77 505.064 134.731 505.055 134.697 505.035L132.933 504.03C132.877 503.999 132.811 503.994 132.752 504.018L130.865 504.767C130.758 504.81 130.636 504.758 130.593 504.65C130.579 504.614 130.575 504.574 130.582 504.536L130.979 502.337L129.652 500.583C129.582 500.491 129.6 500.36 129.692 500.291C129.721 500.269 129.754 500.255 129.789 500.25L131.903 499.953L133.072 498.098C133.134 498 133.263 497.971 133.36 498.032C133.395 498.054 133.423 498.086 133.44 498.123Z" fill="#00160A"/>
<path fill-rule="evenodd" clip-rule="evenodd" d="M223.861 318.545L224.515 319.001C225.248 319.522 227.987 322.103 228.56 322.571C229.929 321.943 231.469 321.612 233.45 321.509C234.17 321.471 234.784 322.025 234.822 322.745C234.86 323.465 234.306 324.08 233.586 324.117C232.445 324.177 231.504 324.316 230.668 324.565C231.934 326.012 232.403 327.277 232.427 328.607L232.427 328.864C232.427 329.585 231.843 330.17 231.121 330.17C230.445 330.17 229.889 329.656 229.822 328.997L229.815 328.864L229.815 328.645C229.796 327.791 229.437 326.933 228.256 325.763C227.724 326.144 227.196 326.603 226.632 327.153L225.246 328.553C224.738 329.066 223.911 329.069 223.399 328.561C222.887 328.054 222.883 327.227 223.391 326.715L224.546 325.541C225.115 324.972 225.663 324.472 226.212 324.035C225.248 321.836 221.637 319.477 222.045 318.883C222.453 318.288 223.266 318.137 223.861 318.545Z" fill="#00160A"/>
<path fill-rule="evenodd" clip-rule="evenodd" d="M475.836 469.161L477.615 470.443L479.686 469.928C479.798 469.9 479.912 469.968 479.94 470.08C479.948 470.114 479.948 470.151 479.939 470.185L479.365 472.308L480.557 474.198C480.618 474.296 480.589 474.425 480.492 474.487C480.458 474.507 480.42 474.519 480.381 474.519L478.351 474.531C478.287 474.531 478.227 474.56 478.188 474.61L476.928 476.203C476.857 476.293 476.725 476.309 476.635 476.237C476.604 476.213 476.581 476.181 476.568 476.144L475.812 474.041L473.786 473.186C473.679 473.141 473.63 473.018 473.674 472.912C473.688 472.879 473.71 472.851 473.738 472.829L475.42 471.514L475.505 469.323C475.51 469.208 475.607 469.118 475.722 469.122C475.763 469.124 475.803 469.137 475.836 469.161Z" fill="#00160A"/>
<path fill-rule="evenodd" clip-rule="evenodd" d="M496.275 387.311L496.814 389.437L498.732 390.373C498.836 390.424 498.879 390.549 498.828 390.652C498.813 390.684 498.789 390.712 498.76 390.732L496.955 391.99L496.654 394.204C496.638 394.318 496.533 394.398 496.418 394.383C496.38 394.378 496.343 394.362 496.313 394.337L494.75 393.041C494.701 393 494.637 392.984 494.574 392.997L492.586 393.407C492.473 393.431 492.362 393.358 492.339 393.245C492.331 393.207 492.334 393.167 492.347 393.13L493.12 391.034L492.118 389.076C492.065 388.973 492.105 388.848 492.208 388.795C492.24 388.779 492.275 388.771 492.311 388.772L494.444 388.846L495.918 387.222C495.995 387.137 496.127 387.13 496.213 387.208C496.243 387.235 496.265 387.271 496.275 387.311Z" fill="#00160A"/>
<path fill-rule="evenodd" clip-rule="evenodd" d="M449.73 301.757L450.269 303.882L452.187 304.819C452.291 304.869 452.334 304.994 452.283 305.098C452.268 305.13 452.244 305.157 452.215 305.178L450.411 306.435L450.109 308.65C450.093 308.764 449.988 308.844 449.873 308.828C449.835 308.823 449.798 308.807 449.768 308.782L448.205 307.486C448.156 307.446 448.092 307.43 448.029 307.442L446.041 307.853C445.928 307.876 445.817 307.803 445.794 307.69C445.786 307.652 445.789 307.613 445.802 307.576L446.575 305.479L445.573 303.522C445.52 303.419 445.561 303.293 445.663 303.24C445.695 303.224 445.73 303.216 445.766 303.218L447.899 303.292L449.373 301.668C449.45 301.582 449.582 301.576 449.668 301.653C449.698 301.681 449.72 301.717 449.73 301.757Z" fill="#00160A"/>
<path fill-rule="evenodd" clip-rule="evenodd" d="M587.236 322.586L588.03 322.515C588.927 322.442 589.74 322.402 590.48 322.392C591.125 321.03 592.092 319.788 593.543 318.435C594.07 317.944 594.897 317.973 595.389 318.5C595.88 319.028 595.851 319.854 595.324 320.346C594.488 321.125 593.857 321.837 593.377 322.564C595.276 322.859 596.448 323.527 597.322 324.53L597.487 324.726C597.951 325.279 597.879 326.103 597.326 326.566C596.808 327.001 596.052 326.965 595.577 326.503L595.486 326.405L595.346 326.238C594.782 325.596 593.955 325.17 592.298 325.032C592.136 325.666 592.026 326.358 591.947 327.141L591.786 329.105C591.727 329.824 591.096 330.358 590.377 330.298C589.658 330.239 589.124 329.608 589.183 328.889L589.314 327.248C589.384 326.446 589.483 325.71 589.622 325.023C588.986 325.055 588.277 325.109 587.488 325.186C586.77 325.255 586.132 324.73 586.062 324.012C585.993 323.294 586.518 322.655 587.236 322.586Z" fill="#00160A"/>
<path fill-rule="evenodd" clip-rule="evenodd" d="M481.778 412.737C481.542 413.334 481.025 414.161 480.425 414.943L480.942 415.48L481.542 416.119L481.676 416.247C481.734 416.299 481.78 416.33 481.813 416.339C482.007 416.367 482.142 416.546 482.116 416.741C482.088 416.932 481.91 417.07 481.716 417.042C481.54 417.038 480.902 416.789 480.141 416.171C480.003 416.059 479.866 415.93 479.726 415.788C479.288 416.278 478.844 416.699 478.461 416.96C477.898 417.349 477.41 417.38 477.177 417.222C476.947 417.069 476.727 416.554 477.1 415.513C477.159 415.324 477.36 415.225 477.546 415.284C477.732 415.343 477.834 415.541 477.776 415.729C477.719 415.922 477.711 416.099 477.71 416.24L477.927 416.093C478.003 416.038 478.081 415.976 478.153 415.904C478.415 415.647 478.706 415.334 478.999 414.996C478.535 414.456 478.062 413.823 477.679 413.092C477.493 412.735 477.344 412.357 477.203 411.959C477.105 411.737 477.206 411.476 477.429 411.377C477.651 411.279 477.912 411.381 478.01 411.603C478.436 412.496 478.981 413.265 479.518 413.924L479.697 414.139C480.187 413.499 480.607 412.851 480.798 412.357C480.904 412.088 481.209 411.954 481.479 412.057C481.751 412.164 481.885 412.468 481.778 412.737Z" fill="#E7EAEE"/>
<path fill-rule="evenodd" clip-rule="evenodd" d="M469.027 146.576C469.823 146.438 470.581 146.97 470.719 147.766C470.858 148.562 470.325 149.319 469.529 149.458C465.744 150.117 461.189 152.38 457.253 156.024C452.143 160.756 448.373 167.434 446.512 176.152C445.013 183.176 446.391 192.423 450.31 200.138C454.769 208.916 461.936 214.884 471.133 216.564C480.575 218.288 488.563 217.217 497.485 214.045L498.306 213.747C498.566 213.649 499.031 213.469 499.615 213.244L499.616 213.243C501.765 212.415 505.519 210.966 506.597 210.64C509.481 209.768 511.449 209.841 512.875 211.361C513.428 211.95 513.399 212.876 512.81 213.429C512.257 213.947 511.409 213.954 510.85 213.467L510.742 213.363C510.321 212.915 509.451 212.863 507.7 213.365L507.443 213.44C506.493 213.728 503.017 215.068 500.849 215.904L500.849 215.904L500.849 215.904L500.848 215.904C500.009 216.228 499.366 216.476 499.142 216.558C489.506 220.075 480.859 221.314 470.608 219.441C460.449 217.586 452.551 211.01 447.702 201.463C443.487 193.167 442.008 183.239 443.651 175.541C445.638 166.237 449.711 159.021 455.266 153.878C459.614 149.851 464.685 147.332 469.027 146.576ZM478.92 153.642C479.712 153.487 480.481 154.004 480.636 154.797C480.791 155.59 480.275 156.358 479.482 156.513C467.627 158.835 458.093 167.89 455.328 179.867C454.392 183.92 454.675 187.216 455.594 188.474L455.715 188.631L455.725 188.653L455.742 188.64C456.071 188.343 456.455 187.585 456.754 186.41L456.816 186.152C459.66 173.834 469.051 164.299 481.046 161.097C481.827 160.888 482.629 161.352 482.837 162.132C483.045 162.913 482.581 163.715 481.801 163.923C470.994 166.808 462.503 175.316 459.778 186.342L459.666 186.81C458.663 191.154 455.784 193.228 453.451 190.478C451.744 188.467 451.326 184.199 452.478 179.209C455.505 166.097 465.942 156.184 478.92 153.642ZM496.511 169.697C496.454 168.891 495.754 168.285 494.948 168.342C480.712 169.358 468.227 178.604 463.26 192.252C461.375 197.43 461.263 202.035 462.806 204.384C464.876 207.534 468.132 205.747 469.756 201.287L469.926 200.829C474.319 189.279 484.613 181.213 496.663 179.531C497.463 179.419 498.021 178.68 497.909 177.88C497.798 177.08 497.059 176.522 496.259 176.634C482.988 178.486 471.673 187.465 467.007 200.286L466.904 200.56C466.385 201.895 465.817 202.699 465.386 202.935L465.367 202.948C465.364 202.951 465.361 202.953 465.359 202.955C465.356 202.958 465.354 202.96 465.353 202.959C465.35 202.959 465.349 202.955 465.344 202.945C465.335 202.924 465.315 202.874 465.251 202.777L465.174 202.65C464.325 201.145 464.454 197.524 466.009 193.252C470.578 180.699 482.061 172.194 495.156 171.26C495.962 171.203 496.569 170.503 496.511 169.697ZM502.882 183.916C503.688 183.859 504.387 184.466 504.445 185.271C504.502 186.077 503.896 186.777 503.09 186.834C493.909 187.489 485.858 193.452 482.654 202.253C481.705 204.862 481.528 207.093 481.868 208.223L481.909 208.349L481.974 208.256C482.138 208.008 482.321 207.652 482.502 207.191L482.579 206.986C485.963 197.69 494.166 191.179 503.789 189.836C504.589 189.724 505.328 190.283 505.44 191.083C505.551 191.883 504.993 192.622 504.193 192.733C495.776 193.908 488.581 199.526 485.482 207.576L485.328 207.987C484.073 211.434 481.359 212.924 479.625 210.284C478.436 208.475 478.52 205.06 479.905 201.253C483.507 191.357 492.56 184.653 502.882 183.916ZM510.591 195.702C510.533 194.896 509.834 194.289 509.028 194.347C502.115 194.84 496.052 199.33 493.64 205.957C492.689 208.57 492.631 210.948 493.511 212.286C494.953 214.481 497.194 213.252 498.128 210.687L498.255 210.35C500.22 205.331 504.723 201.832 509.988 201.098C510.788 200.986 511.346 200.247 511.234 199.447C511.123 198.647 510.383 198.089 509.583 198.2L509.213 198.256C503.545 199.169 498.655 202.766 496.12 207.943L496.031 208.127L496.086 207.918C496.168 207.612 496.268 207.291 496.389 206.958C498.403 201.425 503.464 197.676 509.236 197.265C510.042 197.207 510.648 196.507 510.591 195.702Z" fill="#00160A"/>
<path fill-rule="evenodd" clip-rule="evenodd" d="M502.882 183.916C503.688 183.859 504.387 184.466 504.445 185.271C504.502 186.077 503.896 186.777 503.09 186.834C493.909 187.489 485.858 193.452 482.654 202.253C481.705 204.862 481.528 207.093 481.868 208.223L481.909 208.349L481.974 208.256C482.138 208.008 482.321 207.652 482.502 207.191L482.579 206.986C485.963 197.69 494.167 191.179 503.789 189.836C504.589 189.724 505.328 190.283 505.44 191.083C505.551 191.883 504.993 192.622 504.193 192.733C495.776 193.908 488.581 199.526 485.482 207.576L485.328 207.987C484.073 211.434 481.36 212.924 479.625 210.284C478.436 208.475 478.52 205.06 479.905 201.253C483.507 191.357 492.56 184.653 502.882 183.916Z" fill="#00160A"/>
<path d="M411.787 374.355C442.452 360.012 468.091 352.435 484.053 351.044C488.941 350.618 491.158 353.313 489.92 357.697C489.001 360.951 486.202 365.418 481.911 370.708C474.432 379.928 464.57 387.819 454.749 395.158C470.461 380.656 474.468 374.59 479.314 368.616L480.075 367.666C483.668 363.123 485.99 359.328 486.705 356.795L486.807 356.411C487.252 354.583 486.736 354.15 484.344 354.359C468.743 355.718 443.202 363.31 412.65 377.634C382.048 391.981 381.172 388.675 411.787 374.355Z" fill="#FACC15"/>
<path d="M271.541 327.955L271.765 328.488C273.319 332.172 274.933 335.82 276.765 339.798L277.478 341.342C277.244 341.499 276.937 341.665 276.599 341.813C276.114 342.025 275.622 342.173 275.252 342.223L275.134 342.235L274.956 342.021C273.571 340.317 271.964 337.42 270.803 334.54C270.184 333.006 269.744 331.599 269.545 330.518C269.464 330.077 269.427 329.707 269.43 329.427L269.439 329.242C269.442 329.197 269.442 329.173 269.431 329.17L269.474 329.14C269.722 328.97 270.353 328.6 271.292 328.09L271.541 327.955Z" fill="#FACC15"/>
<path fill-rule="evenodd" clip-rule="evenodd" d="M310.306 314.611C311.266 313.436 312.51 313.612 314.087 314.568L314.492 314.823L315.625 315.574C315.942 315.777 316.079 315.848 316.264 315.921C316.693 316.092 316.902 316.578 316.731 317.007C316.561 317.436 316.074 317.645 315.646 317.474L315.493 317.411C315.203 317.287 314.984 317.158 314.397 316.769L313.584 316.227C313.45 316.14 313.334 316.066 313.22 315.997C312.277 315.425 311.849 315.365 311.6 315.669C311.444 315.86 311.482 316.269 311.793 317.106L312.134 317.985C312.812 319.784 312.816 320.589 311.609 321.276C310.569 321.867 310.036 321.591 308.543 320.128L308.181 319.769C307.225 318.814 306.723 318.482 306.4 318.55C306.293 318.573 306.168 318.649 306.015 318.811C305.836 319.002 305.786 319.613 305.895 320.696L306.064 322.111C306.26 323.84 306.181 324.289 305.467 324.766C304.484 325.424 303.176 324.681 300.751 322.503C300.408 322.195 300.379 321.666 300.688 321.323C300.996 320.979 301.525 320.951 301.868 321.259C302.905 322.19 303.687 322.797 304.234 323.107L304.357 323.174L304.459 323.225L304.461 323.12L304.455 322.87C304.444 322.665 304.418 322.417 304.367 321.996L304.261 321.127C304.058 319.367 304.121 318.388 304.796 317.668C305.171 317.268 305.592 317.012 306.055 316.915C307.128 316.687 307.891 317.146 309.158 318.384L309.797 319.013C310.486 319.676 310.742 319.845 310.782 319.823C310.939 319.733 310.915 319.457 310.492 318.369L310.306 317.898C309.716 316.381 309.603 315.472 310.306 314.611Z" fill="#00160A"/>
<path fill-rule="evenodd" clip-rule="evenodd" d="M401.554 178.567L400.76 178.638C400.042 178.707 399.516 179.345 399.586 180.063C399.628 180.497 399.877 180.861 400.227 181.066L400.089 181.164C399.5 181.58 399.36 182.395 399.777 182.984C400.193 183.573 401.008 183.713 401.597 183.297L402.939 182.346C402.9 182.654 402.866 182.971 402.838 183.3L402.707 184.941C402.647 185.659 403.181 186.29 403.9 186.35C404.619 186.41 405.25 185.875 405.31 185.157L405.471 183.193C405.513 182.773 405.565 182.379 405.628 182.006C406.087 182.876 406.178 183.546 406.081 184.18L406.043 184.396L406.027 184.528C405.978 185.189 406.437 185.791 407.103 185.909C407.813 186.034 408.49 185.56 408.616 184.849L408.66 184.596C408.799 183.715 408.735 182.828 408.378 181.843C408.565 181.977 408.726 182.126 408.869 182.289L409.01 182.457L409.101 182.555C409.575 183.017 410.332 183.053 410.85 182.618C411.402 182.154 411.474 181.331 411.011 180.778L410.845 180.582C410.787 180.514 410.727 180.448 410.665 180.384C411.347 180.424 411.952 179.927 412.036 179.24C412.124 178.524 411.615 177.872 410.899 177.784C409.668 177.633 408.591 177.599 407.601 177.687C407.956 177.269 408.368 176.845 408.847 176.398C409.375 175.906 409.404 175.08 408.912 174.552C408.42 174.024 407.594 173.995 407.066 174.487C406.181 175.312 405.476 176.096 404.915 176.891C404.698 176.661 404.47 176.425 404.231 176.183L403.666 175.621C403.151 175.115 402.325 175.123 401.819 175.638C401.314 176.152 401.322 176.979 401.836 177.485C402.194 177.835 402.523 178.167 402.827 178.482C402.422 178.503 401.998 178.531 401.554 178.567Z" fill="#00160A"/>
<path fill-rule="evenodd" clip-rule="evenodd" d="M351.223 187.616C350.91 187.294 350.402 187.303 350.09 187.636C349.777 187.968 349.777 188.498 350.091 188.82C350.388 189.125 350.654 189.407 350.891 189.67C350.389 189.883 349.885 190.159 349.345 190.499L348.526 191.025C348.167 191.254 348.088 191.712 348.351 192.048C348.614 192.384 349.118 192.471 349.478 192.242L350.46 191.616C350.973 191.301 351.435 191.064 351.9 190.897C352.606 191.879 352.753 192.508 352.663 193.091L352.639 193.23L352.628 193.315C352.595 193.738 352.874 194.123 353.282 194.194C353.717 194.271 354.135 193.964 354.216 193.508L354.244 193.345C354.378 192.499 354.235 191.647 353.628 190.593C354.04 190.587 354.488 190.618 354.997 190.683C355.439 190.739 355.837 190.459 355.884 190.056C355.932 189.653 355.611 189.28 355.168 189.224C354.197 189.1 353.383 189.085 352.638 189.186C352.332 188.809 351.977 188.407 351.567 187.974L351.223 187.616Z" fill="#E7EAEE"/>
<path fill-rule="evenodd" clip-rule="evenodd" d="M182.922 405.336L183.822 407.336L185.874 407.925C185.985 407.957 186.049 408.072 186.017 408.183C186.007 408.218 185.989 408.249 185.964 408.274L184.405 409.825L184.492 412.059C184.497 412.174 184.407 412.271 184.292 412.275C184.253 412.277 184.214 412.268 184.18 412.248L182.416 411.243C182.36 411.212 182.294 411.207 182.235 411.231L180.348 411.98C180.24 412.023 180.119 411.97 180.076 411.863C180.062 411.827 180.058 411.787 180.065 411.749L180.462 409.55L179.135 407.796C179.065 407.704 179.083 407.573 179.175 407.504C179.203 407.482 179.237 407.468 179.272 407.463L181.386 407.166L182.555 405.31C182.617 405.213 182.746 405.184 182.843 405.245C182.878 405.267 182.906 405.299 182.922 405.336Z" fill="#00160A"/>
<path fill-rule="evenodd" clip-rule="evenodd" d="M194.922 294.336L195.822 296.336L197.874 296.925C197.985 296.957 198.049 297.072 198.017 297.183C198.007 297.218 197.989 297.249 197.964 297.274L196.405 298.825L196.492 301.059C196.497 301.174 196.407 301.271 196.292 301.275C196.253 301.277 196.214 301.268 196.18 301.248L194.416 300.243C194.36 300.212 194.294 300.207 194.235 300.231L192.348 300.98C192.24 301.023 192.119 300.97 192.076 300.863C192.062 300.827 192.058 300.787 192.065 300.749L192.462 298.55L191.135 296.796C191.065 296.704 191.083 296.573 191.175 296.504C191.203 296.482 191.237 296.468 191.272 296.463L193.386 296.166L194.555 294.31C194.617 294.213 194.746 294.184 194.843 294.245C194.878 294.267 194.906 294.299 194.922 294.336Z" fill="#00160A"/>
<path d="M222.104 471.061C222.775 470.574 223.713 470.723 224.199 471.393C224.686 472.064 203.465 489.349 195.232 497.27L194.276 498.198C189.573 502.799 186.107 506.783 184.152 509.932C182.082 513.27 181.949 515.082 183.286 515.823C188.358 518.634 195.651 520.004 206.095 518.274L207.168 518.091C211.144 517.394 241.05 510.872 240.577 511.045L240.393 511.1C239.45 511.35 227.273 515.561 223.07 516.631L222.562 516.76C216.137 518.376 211.108 519.484 206.585 520.233C195.533 522.064 187.636 521.664 181.831 518.447C178.482 516.591 178.749 512.951 181.603 508.351C183.848 504.733 187.797 500.261 193.152 495.108C201.495 487.081 213.229 477.506 222.104 471.061Z" fill="#FACC15"/>
<path fill-rule="evenodd" clip-rule="evenodd" d="M378.358 263.132C378.724 262.888 379.215 262.992 379.455 263.364L384.87 271.754C385.11 272.126 385.008 272.625 384.642 272.868C384.276 273.112 383.785 273.008 383.545 272.636L378.13 264.246C377.89 263.874 377.992 263.375 378.358 263.132Z" fill="#00160A"/>
<path fill-rule="evenodd" clip-rule="evenodd" d="M378.623 256.933C379.042 256.686 379.596 256.81 379.861 257.21L383.587 262.854C383.851 263.254 383.726 263.779 383.306 264.026C382.887 264.273 382.333 264.148 382.068 263.748L378.342 258.104C378.078 257.704 378.204 257.18 378.623 256.933Z" fill="#00160A"/>
</svg>
