<svg width="750" height="750" viewBox="0 0 750 750" fill="none" xmlns="http://www.w3.org/2000/svg">
<path fill-rule="evenodd" clip-rule="evenodd" d="M482.912 159.952C547.445 145.507 607.232 162.646 639.366 211.601C671.5 260.555 663.094 338.237 656.133 372.526C649.172 406.815 631.514 438.221 609.598 465.487C568.892 516.129 513.883 554.883 452.387 575.803C390.891 596.722 324.123 601.012 260.037 590.429C224.087 584.492 111.633 555.408 87.3581 467.64C63.0834 379.872 47.7205 304.858 100.288 274.387C152.855 243.915 189.267 266.834 215.29 278.104C336.869 330.757 418.38 174.398 482.912 159.952Z" fill="#E11D48"/>
<path fill-rule="evenodd" clip-rule="evenodd" d="M573.783 242.16C584.135 241.361 595.294 241.878 603.73 247.931C612.166 253.984 615.998 267.275 609.071 275.01C616.902 271.948 626.106 277.141 630.029 284.578C633.952 292.016 633.747 300.927 632.567 309.252C629.644 329.87 621.239 349.686 608.446 366.118C607.858 367.85 607.27 369.582 606.682 371.314C621.803 375.213 680.849 398.144 664.895 454.674C648.941 511.204 579.267 532.72 572.135 539.486C559.704 551.278 540.731 552.084 523.605 551.541C481.497 550.205 439.517 544.853 398.421 535.583C394.927 534.795 390.501 534.315 388.487 537.276C373.908 558.71 343.423 560.627 317.569 558.761C284.358 556.364 251.338 551.327 218.924 543.714C200.538 539.395 181.013 533.381 169.559 518.364C156.206 500.857 157.748 476.585 159.915 454.674C151.138 459.553 136.581 462.196 116.245 462.602C104.271 460.16 96.8025 455.82 93.8384 449.581C80.284 421.053 75.636 384.29 92.5149 356.171C94.5425 352.793 96.882 349.464 100.184 347.314C103.684 345.035 107.951 344.286 112.112 343.918C128.522 342.464 145.359 346.295 159.525 354.704C159.399 308.661 159.272 262.618 159.146 216.575C159.139 213.939 159.175 211.141 160.581 208.91C162.614 205.683 166.779 204.683 170.528 203.984C204.631 197.617 239.12 193.324 273.742 191.135C285.055 190.419 300.536 193.568 300.588 204.903C300.785 248.312 300.982 291.721 301.18 335.13C301.227 345.462 301.891 344.598 306.731 341.604C303.688 341.919 304.367 336.758 306.673 334.748C315.282 327.243 327.826 326.967 339.246 327.084C364.79 327.345 390.333 327.607 415.877 327.868C440.626 328.122 470.307 331.26 481.512 353.33C481.186 346.771 487.131 340.581 493.698 340.641C500.859 340.707 506.849 334.495 508.939 327.645C511.029 320.795 510.107 313.435 509.166 306.335C497.619 295.153 494.596 276.146 502.105 261.934C509.614 247.722 527.019 239.508 542.763 242.745C552.933 244.837 563.432 242.96 573.783 242.16ZM277.387 455.093C277.047 464.232 276.687 473.494 273.997 482.235L277.387 455.093ZM266.804 342.929C269.181 343.625 272.123 345.733 270.875 347.873C281.202 348.905 278.119 348.427 278.583 336.256C279.055 323.907 279.094 310.252 271.009 300.905C263.855 292.634 252.188 290.047 241.291 289.117C228.574 288.031 215.719 288.553 203.131 290.665C196.989 291.696 190.336 293.473 186.772 298.58C184.777 301.438 184.043 304.968 183.457 308.404C181.152 321.92 180.432 335.705 181.317 349.387C207.795 337.068 238.775 334.727 266.804 342.929ZM496.596 433.664C497.243 433.011 498.224 432.852 499.135 432.726C502.774 432.226 506.413 431.725 510.051 431.225C501.7 427.453 496.639 418.494 495.127 409.456C493.615 400.419 495.091 391.179 496.583 382.138C491.241 388.083 491.626 397.052 492.326 405.013C493.857 422.438 495.949 434.318 496.596 433.664ZM427.893 519.492C428.609 517.165 431.045 515.915 432.829 514.257C436.04 511.273 437.232 506.761 438.28 502.505C441.899 487.796 445.541 472.908 445.495 457.76C445.486 454.551 445.323 451.254 446.385 448.225C447.448 445.197 450.111 442.459 453.32 442.443C456.704 442.427 457.512 437.733 457.209 434.362C456.166 422.741 455.123 411.12 454.08 399.499C453.747 395.787 453.407 392.04 452.28 388.488C448.116 375.354 432.067 367.413 419.1 372.069C417.512 372.639 417.088 374.645 416.908 376.322C414.912 394.911 412.916 413.499 410.92 432.088C410.565 435.391 414.83 437.498 418.049 436.68C421.269 435.863 423.727 433.347 426.51 431.535C429.294 429.723 433.218 428.679 435.774 430.8C438.663 433.198 442.94 430.535 445.449 427.743C447.959 424.95 451.227 421.584 454.796 422.749C450.609 426.754 446.423 430.758 442.236 434.763C440.848 436.091 439.623 438.744 441.378 439.528C446.188 437.822 450.537 434.832 453.852 430.951C455.385 430.902 455.457 433.31 454.602 434.583C451.379 439.379 443.793 440.448 441.839 445.886C437.28 458.581 423.062 467.014 409.736 464.926C407.002 464.498 405.64 468.093 405.311 470.84C403.999 481.794 402.687 492.748 401.375 503.702C401.074 506.222 400.792 508.888 401.829 511.204C403.561 515.068 408.191 516.531 412.296 517.571C417.722 518.945 423.211 520.327 428.757 520.927C431.092 521.18 431.083 520.324 427.893 519.492ZM211.719 499.409C219.472 502.005 227.678 502.885 235.809 503.749C239.257 504.115 242.929 504.444 246.022 502.877C249.663 501.032 251.603 497.035 253.169 493.266C261.902 472.247 266.888 449.677 267.822 426.935C267.955 423.703 263.818 422.277 260.591 422.06C234.829 420.331 210.191 431.655 186.859 442.715C185.741 443.245 184.544 443.849 183.992 444.957C183.58 445.782 183.601 446.749 183.632 447.671C184.05 460.235 184.577 473.249 190.196 484.494C191.714 487.531 193.644 490.454 196.377 492.468C198.032 493.688 199.927 494.535 201.806 495.372C205.066 496.824 208.334 498.275 211.719 499.409ZM378.376 452.91C381.81 434.442 384.23 415.787 385.622 397.054C386.098 390.646 386.447 384.131 385.061 377.856C383.676 371.581 380.333 365.481 374.87 362.099C371.503 360.016 367.561 359.08 363.663 358.385C356.55 357.116 349.313 356.54 342.088 356.669C335.713 356.782 329.021 357.559 323.817 361.243C322.096 362.461 320.533 364.055 319.904 366.068C319.275 368.081 319.805 370.554 321.551 371.736C325.963 374.724 327.762 380.315 328.589 385.58C329.416 390.845 329.615 396.358 332.014 401.117C333.251 403.571 335.025 405.712 336.886 407.735C346.973 418.702 360.131 426.816 374.46 430.905C376.979 431.624 380.184 433.18 379.652 435.745C387.577 440.744 378.244 453.618 378.376 452.91ZM356.536 507.378C359.453 505.605 361.432 502.655 363.174 499.718C370.563 487.259 375.409 473.298 377.327 458.939C350.747 458.819 324.325 448.79 304.359 431.243C303.676 433.985 303.807 436.856 303.9 439.68C304.483 457.316 303.436 475.004 300.778 492.448C300.145 496.606 302.629 500.764 306.044 503.219C309.459 505.675 313.666 506.73 317.796 507.525C327.107 509.319 336.622 510.054 346.098 509.713C349.701 509.583 353.454 509.251 356.536 507.378ZM524.265 355.263C522.716 351.529 521.553 347.32 518.339 344.868C515.124 342.417 509.072 343.616 508.883 347.654C512.064 347.068 514.496 350.995 513.954 354.184C513.412 357.373 511.093 359.909 509.251 362.568C506.706 366.242 504.966 370.401 503.244 374.525C499.147 384.339 497.552 395.184 498.651 405.761C499.298 411.989 501.005 418.385 505.216 423.018C509.426 427.652 516.644 429.968 522.192 427.068C526.958 424.578 529.335 419.086 530.428 413.822C531.521 408.557 531.715 403.045 533.78 398.08C537.589 388.921 546.982 383.387 556.274 379.913C542.306 378.016 529.668 368.283 524.265 355.263ZM485.639 365.171C486.26 367.572 487.12 369.912 488.202 372.143C488.852 368.999 489.895 365.936 491.299 363.048C489.878 362.885 488.448 362.808 487.019 362.817C486.671 362.819 486.304 362.832 486.011 363.018C485.351 363.436 485.443 364.414 485.639 365.171ZM317.272 362.7C316.393 363.408 315.877 364.931 316.805 365.573C318.227 364.15 319.649 362.726 321.071 361.302C320.777 360.938 320.35 360.684 319.889 360.599C319.325 361.577 318.152 361.992 317.272 362.7Z" fill="white"/>
<path d="M563.5 352.5C566.537 352.5 569 350.038 569 347C569 343.962 566.537 341.5 563.5 341.5C560.462 341.5 558 343.962 558 347C558 350.038 560.462 352.5 563.5 352.5Z" fill="#FFB61D"/>
<path d="M532 347C533.657 347 535 345.657 535 344C535 342.343 533.657 341 532 341C530.343 341 529 342.343 529 344C529 345.657 530.343 347 532 347Z" fill="#FFB61D"/>
<path fill-rule="evenodd" clip-rule="evenodd" d="M247.926 268.077C256.926 268.134 265.925 268.191 274.925 268.248C275.347 268.251 275.799 268.263 276.139 268.513C276.833 269.022 276.556 270.216 275.841 270.696C275.127 271.177 274.2 271.156 273.339 271.126C265.419 270.851 257.475 271.263 249.626 272.354C248.432 272.52 247.173 272.695 246.056 272.241C244.94 271.787 244.086 270.45 244.6 269.36C245.137 268.221 246.667 268.069 247.926 268.077ZM217.83 267.193C218.4 267.761 218.127 268.805 217.493 269.302C216.86 269.799 216.011 269.899 215.21 269.98C207.231 270.788 199.252 271.595 191.274 272.403C190.33 272.499 189.354 272.591 188.452 272.301C187.549 272.01 186.732 271.23 186.711 270.281C186.689 269.303 187.519 268.473 188.447 268.16C189.374 267.848 190.381 267.936 191.357 268.012C199.532 268.656 207.787 268.285 215.871 266.911C216.549 266.796 217.343 266.708 217.83 267.193ZM216.712 251.877C217.308 252.358 217.096 253.39 216.498 253.868C215.9 254.347 215.086 254.426 214.322 254.486L188.698 256.508C187.739 256.584 186.745 256.655 185.841 256.328C184.936 256 184.142 255.158 184.194 254.197C184.247 253.223 185.146 252.468 186.093 252.238C187.04 252.009 188.032 252.18 188.996 252.323C197.693 253.608 206.536 252.436 215.291 251.64C215.782 251.596 216.328 251.568 216.712 251.877ZM252.498 246.801C257.844 247.484 263.264 247.588 268.633 247.11C270.768 246.92 273.348 246.831 274.56 248.598C273.121 249.761 271.143 249.926 269.296 250.043C263.173 250.429 257.051 250.815 250.929 251.2C249.532 251.288 247.791 251.183 247.216 249.907C246.7 248.762 247.608 247.386 248.775 246.922C249.942 246.458 251.252 246.642 252.498 246.801ZM206.309 240.255C206.315 241.18 205.156 241.579 204.241 241.713L190.786 243.685C189.825 243.826 188.833 243.965 187.895 243.715C186.957 243.464 186.08 242.718 185.993 241.751C185.885 240.568 186.996 239.569 188.156 239.311C189.316 239.053 190.518 239.323 191.697 239.475C195.761 239.999 199.861 239.105 203.957 238.965C204.959 238.93 206.301 239.252 206.309 240.255ZM271.234 237.034C272.276 237.15 273.344 237.772 273.622 238.782C271.773 240.18 269.329 240.434 267.02 240.639C263.068 240.989 259.115 241.34 255.163 241.69C253.77 241.813 252.378 241.937 250.986 242.06C249.968 242.151 248.909 242.236 247.952 241.874C246.996 241.513 246.179 240.564 246.322 239.552C246.546 237.957 248.64 237.543 250.25 237.578C256.225 237.706 262.274 238.608 268.128 237.405C269.154 237.194 270.193 236.918 271.234 237.034ZM276.483 221.947C247.196 225.896 217.169 223.851 188.285 230.098C186.572 230.469 184.181 230.487 183.738 228.791C183.778 226.793 186.362 226.072 188.355 225.93C216.454 223.926 244.552 221.922 272.65 219.918C274.299 219.8 276.612 220.299 276.483 221.947Z" fill="#E7EAEE"/>
<path fill-rule="evenodd" clip-rule="evenodd" d="M173.462 525.528C173.768 529.071 168.884 530.272 165.327 530.286C146.844 530.359 128.379 533.787 111.102 540.354C108.465 541.356 105.643 542.618 104.36 545.13C102.66 548.456 104.515 552.713 107.521 554.93C110.528 557.146 114.365 557.822 118.052 558.422C213.879 574.026 311.131 580.866 408.199 578.829L409.76 578.795C420.955 578.536 432.38 577.934 442.636 573.502C434.146 567.551 425.656 561.6 417.165 555.649C431.863 552.714 447.028 554.805 461.943 556.277C496.08 559.647 530.543 559.716 564.693 556.483C562.289 560.324 557.003 560.857 552.472 560.955C509.515 561.88 466.505 560.353 423.721 556.386C429.303 560.06 434.885 563.733 440.467 567.407C442.49 568.738 444.728 570.428 444.844 572.846C445.02 576.481 440.554 578.295 436.964 578.888C425.05 580.857 412.93 581.17 400.856 581.347C306.557 582.725 212.141 575.978 118.997 561.204C114.452 560.483 109.743 559.678 105.953 557.067C102.163 554.457 99.5798 549.493 101.172 545.175C102.756 540.881 107.576 538.864 111.927 537.443C131.838 530.94 152.562 526.927 173.462 525.528ZM300.588 204.903C300.785 248.312 300.982 291.721 301.18 335.13C301.227 345.462 303.262 358.536 313.254 361.167C327.06 354.793 342.622 352.275 357.734 353.97C366.385 354.94 375.368 357.556 381.225 363.996C389.258 372.831 389.27 386.136 388.408 398.046C386.66 422.188 383.216 446.206 378.111 469.866C382.167 469.61 386.304 471.238 389.098 474.189C384.794 476.157 379.667 476.239 375.302 474.41C378.3 490.66 365.061 506.693 349.206 511.348C333.351 516.003 316.146 511.614 301.237 504.488C299.838 509.933 307.123 513.133 312.684 513.955C326.802 516.042 340.919 518.128 355.037 520.215C337.602 520.739 320.11 519.311 302.991 515.969C299.838 520.433 306.977 524.94 312.372 525.813C326.681 528.129 340.991 530.445 355.301 532.761C339.138 532.653 322.982 531.575 306.949 529.536C317.146 538.734 331.065 543.68 344.78 542.977C337.043 545.522 328.448 545.369 320.807 542.55C330.366 555.351 349.923 557.723 364.204 550.563C378.486 543.403 387.811 528.755 392.373 513.443C396.935 498.132 397.378 481.95 398.186 465.995C399.678 436.542 402.53 407.129 407.689 378.094C411.164 358.541 419.698 335.227 439.364 332.465C404.328 330.85 369.258 329.979 334.186 329.853C323.528 329.815 310.29 331.558 306.731 341.604C303.688 341.919 304.367 336.758 306.673 334.748C315.282 327.243 327.826 326.967 339.246 327.084L415.877 327.868C440.626 328.122 470.307 331.26 481.512 353.33C481.186 346.771 487.131 340.581 493.698 340.641C500.859 340.707 506.849 334.495 508.939 327.645C511.029 320.795 510.107 313.435 509.166 306.335C497.619 295.153 494.596 276.146 502.105 261.934C504.229 257.914 507.367 248.33 524.892 242.16C536.576 238.047 548.125 238.5 559.539 243.517C580.975 239.372 595.705 240.843 603.73 247.931C615.767 258.562 615.998 267.275 609.071 275.01C616.902 271.948 626.107 277.141 630.029 284.578C633.952 292.016 633.747 300.927 632.567 309.252C629.644 329.87 621.239 349.686 608.446 366.118L606.682 371.314C637.629 379.293 662.664 406.646 667.877 438.176C657.588 414.986 643.66 390.426 619.663 382.192C614.248 387.872 608.68 393.799 606.137 401.223C603.594 408.647 604.968 418.028 611.416 422.5C607.366 423.439 603.316 424.377 599.266 425.316C600.614 427.707 601.962 430.099 603.31 432.49C588.007 444.124 586.246 466.128 586.339 485.352C586.432 504.575 586.082 526.255 572.135 539.486C559.704 551.278 540.731 552.084 523.606 551.541C481.497 550.205 439.517 544.853 398.421 535.583C394.927 534.795 390.501 534.315 388.487 537.276C373.909 558.71 343.423 560.627 317.569 558.761C284.358 556.364 251.339 551.327 218.924 543.714C200.538 539.395 181.013 533.381 169.559 518.364C156.206 500.857 157.748 476.585 159.915 454.674C146.75 461.993 131.143 464.827 116.245 462.602C131.949 452.335 139.564 432.694 139.707 413.933C139.85 395.171 133.588 376.986 126.62 359.565C111.269 368.469 103.192 387.237 104.394 404.943C105.595 422.649 114.989 439.083 127.593 451.576C112.055 441.77 101.774 424.105 100.923 405.751C100.072 387.398 108.675 368.857 123.238 357.656C120.911 349.697 108.905 348.725 102.612 354.124C96.3196 359.524 94.3447 368.288 92.7261 376.42C89.7352 391.446 86.732 406.823 88.9051 421.989C91.0782 437.156 99.4558 452.337 113.494 458.473C106.934 463.202 98.1955 456.395 93.8385 449.581C76.1696 421.951 75.636 384.29 92.515 356.171C94.5426 352.793 96.882 349.464 100.184 347.314C103.684 345.035 107.951 344.286 112.112 343.918C128.522 342.464 145.359 346.295 159.526 354.704C159.399 308.661 159.273 262.618 159.146 216.575C159.139 213.939 159.175 211.141 160.581 208.91C162.614 205.683 166.779 204.683 170.528 203.984C204.631 197.617 239.12 193.324 273.742 191.135C285.055 190.419 300.537 193.568 300.588 204.903ZM277.465 193.909C240.757 195.637 204.182 200.174 168.165 207.469C166.632 207.78 165.009 208.142 163.895 209.24C162.377 210.735 162.26 213.104 162.24 215.234C161.81 261.08 161.992 306.932 162.785 352.774C167.193 351.675 171.601 350.576 176.008 349.477C174.285 340.07 172.555 330.536 173.292 321.002C174.028 311.467 177.527 301.77 184.724 295.473C192.513 288.657 203.383 286.731 213.708 286.006C223.636 285.309 233.625 285.47 243.526 286.488C253.633 287.527 264.28 289.771 271.571 296.847C282.104 307.067 282.275 323.625 281.729 338.292C280.282 377.226 278.834 416.159 277.387 455.093C277.047 464.232 276.687 473.494 273.997 482.235C271.308 490.976 265.969 499.284 257.892 503.573C249.966 507.783 240.482 507.663 231.565 506.65C223.052 505.683 214.621 503.995 206.391 501.611C201.392 500.162 196.39 498.419 192.141 495.412C178.083 485.464 176.421 465.612 176.079 448.393C170.681 447.418 165.404 451.526 163.175 456.539C160.947 461.551 161.045 467.246 161.184 472.729C161.529 486.408 162.062 500.769 169.045 512.536C179.819 530.692 202.448 537.399 223.11 541.734C259.783 549.429 297.017 554.447 334.419 556.736C317.727 548.234 302.928 533.684 299.408 515.286C298.451 510.288 298.349 505.171 298.249 500.083C296.3 400.605 294.351 301.126 292.402 201.648C292.279 195.357 283.75 193.613 277.465 193.909ZM419.762 357.234C418.834 359.498 418.159 362.011 418.777 364.379C419.395 366.747 421.696 368.814 424.11 368.412C434.923 366.611 446.579 371.937 452.295 381.291C457.011 389.008 457.666 398.45 458.197 407.479L463.033 489.725C463.55 498.514 463.805 508.185 458.342 515.09C451.255 524.048 437.947 524.347 426.578 523.235C417.198 522.317 407.33 520.757 400.047 514.774C400.305 518.256 399.29 521.819 397.235 524.643C394.699 528.128 398.793 532.714 402.776 534.361C407.64 536.374 412.93 537.075 418.151 537.753C442.062 540.857 465.988 543.849 489.928 546.731C508.354 548.949 527.075 551.098 545.394 548.12C533.805 544.868 522.715 539.842 512.63 533.271C507.599 529.993 502.734 526.247 499.302 521.319C493.701 513.274 492.52 503.052 491.588 493.293C488.817 464.275 486.754 435.189 485.402 406.071C484.405 384.593 477.518 363.418 465.69 345.463C463.575 342.253 460.988 338.921 457.249 338.027C442.382 334.474 425.563 343.091 419.762 357.234ZM351.592 543.093C352.853 543.307 354.147 543.59 355.187 544.335C356.226 545.081 356.951 546.405 356.631 547.644C356.311 548.882 354.676 549.697 353.644 548.942C352.504 548.109 350.988 548.08 349.63 547.696C348.272 547.312 346.848 546.184 347.092 544.794C347.402 543.031 349.828 542.793 351.592 543.093ZM299.234 543.616C300.798 543.941 302.63 545.057 302.309 546.622C302.027 548.003 300.319 548.463 298.922 548.65C297.356 548.859 295.685 549.053 294.263 548.364C292.842 547.676 291.92 545.734 292.852 544.459C293.481 543.599 294.658 543.371 295.723 543.327C296.899 543.28 298.081 543.377 299.234 543.616ZM392.842 526.215C391.357 527.286 390.337 528.865 389.289 530.366C384.512 537.21 378.457 543.16 371.531 547.816C371.704 548.55 372.805 548.365 373.458 547.986C381.478 543.339 387.202 535.662 392.695 528.196C393.144 527.586 393.515 526.563 392.842 526.215ZM464.559 341.321C468.838 346.373 473.15 351.474 476.281 357.309C479.674 363.634 481.581 370.643 483.116 377.656C491.703 416.883 489.411 457.667 494.976 497.435C495.98 504.611 497.308 511.94 501.042 518.15C505.416 525.425 512.675 530.468 520.071 534.635C526.052 538.005 532.295 540.964 538.864 542.961C549.31 546.135 561.858 546.357 569.866 538.936C574.362 534.768 576.727 528.823 578.575 522.977C586.494 497.921 587.364 470.678 581.062 445.168C581.22 460.425 583.202 475.647 582.748 490.898C582.295 506.149 579.164 521.855 570.199 534.201C568.423 536.647 566.365 538.994 563.681 540.384C560.146 542.215 555.947 542.18 551.995 541.697C545.093 540.854 538.345 538.769 532.171 535.571C527.482 533.142 523.143 530.09 518.939 526.893C514.052 523.177 509.254 519.174 505.83 514.078C502.437 509.028 500.545 503.128 499.045 497.231C488.09 454.174 495.923 407.728 482.924 365.244C479.86 355.231 474.539 344.488 464.559 341.321ZM203.212 530.742C228.501 534.645 253.791 538.549 279.08 542.452C278.44 544.125 276.128 544.184 274.352 543.947C252.724 541.057 231.096 538.168 209.468 535.279C207.023 534.952 204.578 534.626 202.132 534.299C200.972 534.144 199.531 533.724 199.384 532.562C199.177 530.925 201.581 530.49 203.212 530.742ZM496.583 382.138C491.241 388.083 491.626 397.052 492.326 405.013C493.857 422.438 495.389 439.863 496.92 457.288C496.992 458.103 497.079 458.962 497.557 459.626C498.339 460.713 499.852 460.902 501.187 460.996C519.369 462.277 537.551 463.558 555.733 464.839C554.374 466.988 551.309 467.02 548.774 466.825C531.657 465.503 514.47 465.075 497.308 465.542C497.012 474.343 498.309 483.196 501.118 491.542C502.335 495.159 507.022 495.93 510.836 496.084C525.379 496.673 539.922 497.262 554.466 497.851C555.135 499.357 552.785 500.298 551.136 500.279C536.188 500.107 521.239 499.936 506.29 499.764C504.242 499.74 503.501 502.641 504.273 504.538C506.29 509.495 512.71 510.562 518.051 510.897L551.473 512.989C552.236 513.037 552.395 514.237 551.838 514.76C551.281 515.283 550.432 515.298 549.668 515.281L510.536 514.451C520.654 526.493 534.845 535.05 550.217 538.378C553.529 539.095 557.041 539.566 560.259 538.503C564.11 537.232 566.95 533.962 569.173 530.571C580.963 512.583 580.179 489.438 578.974 467.965L577.608 443.625C578.085 442.969 579.065 442.742 579.782 443.121C580.059 441.928 578.507 441.22 577.302 440.999C550.704 436.113 523.41 431.22 496.791 435.991C495.94 435.642 495.949 434.318 496.596 433.664C497.243 433.011 498.224 432.852 499.135 432.726C502.774 432.226 506.413 431.725 510.051 431.225C501.701 427.453 496.639 418.494 495.127 409.456C493.615 400.419 495.091 391.179 496.583 382.138ZM365.856 530.103C368.225 530.544 370.961 531.268 371.885 533.493C369.248 535.291 365.784 535.106 362.602 534.852C361.727 534.782 360.77 534.676 360.155 534.049C359.067 532.94 359.879 530.896 361.279 530.222C362.679 529.548 364.329 529.818 365.856 530.103ZM185.424 513.844C212.671 522.405 240.906 527.818 269.387 529.94C271.596 530.104 274.566 531.157 274.141 533.332C244.02 529.925 214.082 524.89 184.503 518.257C182.616 517.834 180.194 516.489 180.897 514.687C181.515 513.103 183.803 513.334 185.424 513.844ZM285.222 527.058C286.613 527.055 287.956 527.531 289.256 528.026C289.918 528.278 290.646 528.602 290.902 529.262C291.449 530.668 289.51 531.672 288.026 531.942C287.027 532.123 286.028 532.304 285.029 532.485C284.187 532.638 283.28 532.784 282.504 532.42C281.244 531.83 280.917 530.012 281.64 528.823C282.362 527.634 283.83 527.061 285.222 527.058ZM413.525 524.054C425.577 526.346 437.922 526.476 450.19 526.599C451.139 526.609 451.395 528.102 450.717 528.767C450.039 529.431 448.98 529.461 448.031 529.442C436.579 529.217 425.113 528.01 413.694 528.91C412.451 529.008 411.16 529.125 409.993 528.687C408.825 528.25 407.83 527.07 408.052 525.843C408.243 524.786 409.274 524.045 410.329 523.84C411.384 523.636 412.469 523.853 413.525 524.054ZM440.753 335.117C427.107 337.154 415.642 349.3 414.395 363.041C413.229 375.874 409.687 388.354 407.165 400.991C399.068 441.573 401.524 483.631 394.365 524.389C396.98 519.627 397.685 514.085 398.344 508.693L415.704 366.524C416.166 362.741 416.638 358.914 417.997 355.354C421.711 345.623 431.31 339.511 440.753 335.117ZM378.707 519.249C379.45 519.485 380.212 519.795 380.707 520.397C381.203 521 381.327 521.973 380.786 522.534C380.377 522.957 379.737 523.034 379.151 523.085C377.233 523.255 375.315 523.424 373.397 523.594C372.361 523.685 371.292 523.773 370.305 523.446C369.318 523.119 368.428 522.264 368.4 521.225C368.352 519.465 370.523 518.581 372.28 518.466C374.446 518.324 376.638 518.591 378.707 519.249ZM419.1 372.069C417.512 372.639 417.088 374.645 416.908 376.322L410.92 432.088C410.565 435.391 414.83 437.498 418.05 436.68C421.269 435.863 423.727 433.347 426.51 431.535C429.294 429.723 433.218 428.679 435.774 430.8C438.663 433.198 442.94 430.535 445.449 427.743C447.959 424.95 451.227 421.584 454.796 422.749C450.609 426.754 446.423 430.758 442.236 434.763C440.848 436.091 439.624 438.744 441.378 439.528C446.188 437.822 450.537 434.832 453.852 430.951C455.385 430.902 455.457 433.31 454.602 434.583C451.379 439.379 443.793 440.448 441.839 445.886C437.281 458.581 423.062 467.014 409.736 464.926C407.003 464.498 405.64 468.093 405.311 470.84C403.999 481.794 402.687 492.748 401.375 503.702C401.074 506.222 400.792 508.888 401.829 511.204C403.561 515.068 408.191 516.531 412.296 517.571C420.007 519.524 427.844 521.492 435.794 521.211C443.743 520.93 451.963 518.088 456.997 511.929C455.603 510.119 452.498 512.44 450.467 511.392C448.481 510.368 449.536 506.956 451.668 506.285C453.801 505.615 456.052 506.681 458.032 507.717C459.276 505.29 460.555 502.692 460.299 499.977C460.043 497.262 457.551 494.576 454.893 495.187C453.146 495.588 452.434 492.561 453.843 491.452C455.251 490.343 457.274 490.703 459.018 491.117C459.115 484.564 459.212 478.011 459.309 471.458C459.328 470.12 459.333 468.716 458.698 467.538C458.064 466.361 456.561 465.536 455.356 466.117C453.714 466.908 452.29 464.111 453.389 462.657C454.488 461.202 456.563 461.014 458.385 460.951C458.526 455.131 458.149 449.298 457.262 443.544C450.403 446.981 449.203 456.051 448.511 463.692C447.184 478.346 444.515 492.878 440.548 507.047C439.659 510.221 438.659 513.467 436.582 516.026C434.505 518.586 431.083 520.324 427.893 519.492C428.609 517.165 431.045 515.915 432.829 514.257C436.04 511.273 437.232 506.761 438.28 502.505C441.899 487.796 445.541 472.908 445.495 457.76L445.489 456.744C445.465 453.86 445.435 450.935 446.386 448.225C447.448 445.197 450.111 442.459 453.32 442.443C456.704 442.427 457.512 437.733 457.209 434.362C456.166 422.741 455.123 411.12 454.08 399.499C453.747 395.787 453.407 392.04 452.28 388.488C448.116 375.354 432.067 367.413 419.1 372.069ZM470.162 513.804C471.752 514.231 473.296 515.867 472.635 517.375C472.004 518.816 470.022 518.895 468.456 518.747C467.69 518.674 466.874 518.582 466.276 518.098C465.227 517.25 465.375 515.452 466.357 514.528C467.34 513.603 468.859 513.454 470.162 513.804ZM279.031 512.193C280.077 512.42 281.168 512.725 281.92 513.487C282.672 514.248 282.921 515.606 282.173 516.372C281.562 516.999 280.577 517.01 279.703 516.979C278.446 516.935 277.189 516.891 275.932 516.847C275.204 516.821 274.426 516.779 273.841 516.344C272.593 515.415 273.14 513.24 274.482 512.45C275.823 511.661 277.51 511.864 279.031 512.193ZM182.182 500.79C189.218 504.062 196.949 505.489 204.594 506.821C220.07 509.517 235.593 511.946 251.153 514.105C253.33 514.407 255.742 514.835 257.069 516.587C251.043 516.999 245.021 515.995 239.065 514.995C219.43 511.698 199.795 508.401 180.16 505.104C178.102 504.758 175.445 503.615 175.846 501.567C176.321 499.139 179.939 499.747 182.182 500.79ZM304.359 431.243C303.676 433.985 303.807 436.856 303.9 439.68C304.483 457.316 303.436 475.004 300.778 492.448C300.145 496.606 302.629 500.764 306.044 503.219C309.459 505.675 313.666 506.73 317.796 507.525C327.107 509.319 336.622 510.054 346.098 509.713C349.701 509.583 353.454 509.251 356.536 507.378C359.454 505.605 361.432 502.655 363.174 499.718C370.563 487.259 375.409 473.298 377.327 458.939C350.747 458.819 324.325 448.79 304.359 431.243ZM373.879 501.162C375.694 501.761 377.509 502.36 379.323 502.959C379.928 503.159 380.577 503.39 380.936 503.917C381.543 504.807 380.954 506.109 380.015 506.637C379.077 507.165 377.937 507.136 376.861 507.094C374.902 507.016 372.738 506.851 371.37 505.446C370.003 504.041 370.472 501.01 372.428 500.882C372.923 500.85 373.408 501.007 373.879 501.162ZM469.008 501.425C470.087 501.598 471.226 501.797 472.058 502.506C472.89 503.215 473.231 504.619 472.465 505.398C472.156 505.712 471.727 505.874 471.311 506.019C469.705 506.578 467.921 507.024 466.332 506.415C464.744 505.806 463.66 503.706 464.659 502.329C465.577 501.064 467.464 501.179 469.008 501.425ZM186.859 442.715C185.741 443.245 184.544 443.849 183.992 444.957C183.58 445.782 183.601 446.749 183.632 447.671C184.05 460.235 184.577 473.249 190.196 484.494C191.714 487.531 193.644 490.454 196.377 492.468C198.032 493.688 199.927 494.535 201.806 495.372C205.066 496.824 208.334 498.275 211.719 499.409C219.472 502.005 227.678 502.885 235.809 503.749C239.257 504.115 242.929 504.444 246.022 502.877C249.663 501.032 251.603 497.035 253.169 493.266C261.902 472.247 266.888 449.677 267.822 426.935C267.955 423.703 263.818 422.277 260.591 422.06C234.829 420.331 210.191 431.655 186.859 442.715ZM271.823 426.023C271.162 426.892 271.08 428.056 271.014 429.146C269.473 454.865 263.072 480.285 252.248 503.666C262.56 498.448 270.243 488.314 272.484 476.976C273.254 473.078 273.411 469.088 273.567 465.118C274.057 452.598 274.547 440.079 275.037 427.559C275.063 426.899 275.068 426.174 274.648 425.664C273.954 424.821 272.484 425.154 271.823 426.023ZM276.094 488.666C277.402 488.737 278.632 489.281 279.904 489.597C281.043 489.881 281.387 491.503 280.751 492.489C280.115 493.476 278.889 493.905 277.727 494.068C276.513 494.238 275.209 494.174 274.165 493.532C273.122 492.889 272.445 491.549 272.861 490.397C273.307 489.164 274.785 488.595 276.094 488.666ZM469.758 485.267C470.982 485.52 472.031 486.278 473.038 487.016C473.585 487.417 474.166 487.867 474.345 488.521C474.574 489.356 474.023 490.255 473.264 490.672C472.505 491.088 471.595 491.117 470.733 491.048C469.507 490.95 468.24 490.647 467.315 489.836C466.39 489.026 465.92 487.603 466.496 486.517C467.082 485.413 468.535 485.014 469.758 485.267ZM178.705 446.373C178.371 446.969 178.438 447.701 178.516 448.38L180.333 464.386C181.32 473.071 182.612 482.432 188.683 488.721C189.695 488.241 189.124 486.719 188.486 485.798C183.568 478.702 182.621 469.678 181.823 461.081C181.356 456.042 180.888 451.003 180.421 445.964C179.951 445.467 179.04 445.776 178.705 446.373ZM502.432 479.158C519.111 479.57 535.79 479.982 552.469 480.394C555.021 480.457 557.582 480.52 560.107 480.899C559.58 482.723 557.183 483.066 555.284 483.048C538.558 482.891 521.777 481.855 505.141 483.594C503.719 483.743 502.183 483.889 500.949 483.167C499.715 482.445 499.162 480.463 500.297 479.593C500.885 479.142 501.691 479.14 502.432 479.158ZM456.606 475.881C456.974 476.001 457.349 476.129 457.649 476.373C458.646 477.184 458.275 478.918 457.255 479.701C456.235 480.484 454.861 480.574 453.576 480.606C452.238 480.639 450.678 480.533 449.916 479.433C448.959 478.053 450.096 476.01 451.68 475.45C453.264 474.89 455.01 475.359 456.606 475.881ZM468.801 472.511C470.356 472.679 471.87 473.224 473.175 474.087C474.173 474.746 473.974 476.401 473.066 477.179C472.158 477.958 470.863 478.067 469.668 478.023C468.46 477.98 467.199 477.796 466.221 477.085C465.244 476.373 464.662 474.998 465.186 473.909C465.783 472.665 467.429 472.363 468.801 472.511ZM300.778 434.447C299.87 447.538 299.463 460.663 299.558 473.785C299.562 474.34 299.94 475.128 300.413 474.839C301.418 463.81 301.911 452.733 301.89 441.658C301.885 439.205 301.836 436.661 300.778 434.447ZM282.948 468.029C284.379 468.137 285.641 468.97 286.808 469.806C287.167 470.063 287.537 470.338 287.737 470.731C288.153 471.547 287.655 472.596 286.873 473.073C286.092 473.55 285.125 473.588 284.211 473.545C282.131 473.448 279.516 472.316 279.749 470.247C279.909 468.821 281.517 467.922 282.948 468.029ZM472.266 459.212C473.659 459.783 475.092 461.276 474.372 462.599C473.885 463.494 472.698 463.687 471.679 463.698C470.496 463.709 469.312 463.613 468.146 463.409C466.506 463.123 466.255 460.544 467.528 459.472C468.801 458.4 470.726 458.579 472.266 459.212ZM634.567 433.597C635.141 434.558 635.151 435.741 635.144 436.86C635.095 444.782 635.046 452.703 634.998 460.625C634.992 461.587 634.863 462.752 633.989 463.156C633.235 463.505 632.305 463.015 631.885 462.298C631.465 461.58 631.427 460.709 631.413 459.878C631.291 452.806 632.079 445.565 630.076 438.781C629.481 436.766 628.769 434.248 630.325 432.836C631.542 431.733 633.724 432.188 634.567 433.597ZM430.911 432.68C424.906 436.406 418.59 440.237 411.542 440.744C410.26 440.836 409.682 442.368 409.429 443.629C408.291 449.299 407.663 455.072 407.555 460.855C407.548 461.208 407.552 461.588 407.756 461.877C408.081 462.336 408.744 462.355 409.305 462.325C414.804 462.037 420.377 461.463 425.484 459.405C430.591 457.346 435.237 453.617 437.318 448.519C439.398 443.422 438.398 436.92 434.148 433.419C433.234 432.666 431.917 432.056 430.911 432.68ZM384.942 454.977C386.871 455.484 388.8 455.99 390.729 456.497C391.45 456.686 392.252 456.938 392.597 457.599C393.003 458.377 392.53 459.381 391.796 459.862C391.061 460.342 390.147 460.433 389.272 460.511C387.886 460.634 386.458 460.754 385.127 460.344C383.797 459.934 382.571 458.861 382.419 457.477C382.267 456.094 383.595 454.624 384.942 454.977ZM117.327 349.416C124.547 352.341 129.982 358.666 133.353 365.689C136.723 372.712 138.258 380.455 139.596 388.13C141.81 400.831 143.573 413.796 141.959 426.588C140.344 439.38 134.997 452.135 125.084 460.379C132.305 460.765 140.927 460.479 144.847 454.402C146.606 451.675 150.393 450.468 153.405 451.674C151.511 450.037 152.941 446.988 154.347 444.916C160.106 436.427 164.058 426.67 165.47 416.509C168.209 396.806 161.324 376.838 151.109 359.77C144.481 348.695 129.022 343.957 117.327 349.416ZM288.524 451.478C290.014 452.065 289.667 454.527 288.275 455.318C286.882 456.108 285.146 455.753 283.595 455.358C282.871 455.174 282.103 454.959 281.611 454.396C280.464 453.084 281.781 450.865 283.48 450.473C285.178 450.081 286.902 450.84 288.524 451.478ZM342.088 356.669C335.713 356.782 329.021 357.559 323.817 361.243C322.096 362.461 320.533 364.055 319.904 366.068C319.276 368.081 319.805 370.554 321.551 371.736C325.963 374.724 327.762 380.315 328.589 385.58C329.416 390.845 329.615 396.358 332.014 401.117C333.251 403.571 335.025 405.712 336.886 407.735C346.973 418.702 360.131 426.816 374.46 430.905C376.979 431.624 380.184 433.18 379.652 435.745C359.036 431.422 340.237 418.981 328.2 401.696C324.542 412.93 317.327 422.976 307.85 430.031C326.336 445.762 350.259 454.979 374.521 455.718C375.62 455.751 376.864 455.71 377.606 454.898C378.092 454.366 378.244 453.618 378.376 452.91C381.81 434.442 384.23 415.787 385.622 397.054C386.098 390.646 386.447 384.131 385.061 377.856C383.676 371.581 380.334 365.481 374.87 362.099C371.503 360.016 367.561 359.08 363.663 358.385C356.55 357.116 349.313 356.54 342.088 356.669ZM468.758 446.544C470.429 446.545 472.538 447.034 472.832 448.679C473.124 450.319 471.256 451.54 469.603 451.751C468.394 451.906 467.081 451.759 466.122 451.007C465.163 450.255 464.717 448.782 465.383 447.762C466.066 446.715 467.509 446.543 468.758 446.544ZM592.263 413.612C589.195 425.497 587.404 437.668 585.619 449.812C585.53 450.417 585.479 451.131 585.935 451.537C590.717 445.596 595.104 439.336 599.058 432.814C599.448 432.17 599.831 431.328 599.393 430.716C598.403 429.331 597.412 427.946 596.422 426.561C595.687 425.533 594.929 424.179 595.576 423.093C596.101 422.21 597.278 422.024 598.301 421.93L606.703 421.156C606.612 420.636 606.295 420.187 605.987 419.758C603.738 416.627 601.284 413.335 597.682 411.962C595.685 411.201 592.797 411.544 592.263 413.612ZM203.131 290.665C196.989 291.696 190.336 293.473 186.772 298.58C184.777 301.438 184.043 304.968 183.457 308.404C181.152 321.92 180.432 335.705 181.317 349.387C207.795 337.068 238.775 334.727 266.804 342.929C269.181 343.625 272.123 345.733 270.875 347.873C249.85 340.096 226.431 338.936 204.741 344.598C197.722 346.43 190.901 348.949 183.923 350.928C173.551 353.868 162.84 355.607 152.071 356.097C171.684 382.726 174.222 420.857 158.311 449.85C168.211 447.977 177.512 443.818 186.64 439.552C200.267 433.184 213.836 426.468 228.312 422.38C242.788 418.291 258.44 416.954 272.799 421.437C274.479 421.961 275.404 419.537 275.471 417.778L278.583 336.256C279.055 323.907 279.094 310.252 271.009 300.905C263.855 292.634 252.188 290.047 241.292 289.117C228.574 288.031 215.719 288.553 203.131 290.665ZM392.831 441.974C393.233 442.236 393.648 442.567 393.742 443.038C393.932 443.993 392.77 444.602 391.833 444.868C390.472 445.254 389.069 445.64 387.662 445.492C386.254 445.344 384.823 444.536 384.36 443.199C383.898 441.861 384.827 440.106 386.242 440.08C388.561 440.037 390.889 440.706 392.831 441.974ZM592.551 390.676C587.429 393.548 581.31 394.598 575.524 393.596C576.264 395.66 579.509 396.38 579.525 398.572C579.535 399.907 578.277 400.847 577.562 401.975C577.012 402.842 576.774 403.866 576.554 404.87C574.493 414.309 573.309 423.94 573.024 433.598C572.975 435.263 573.389 437.461 575.044 437.642C578.472 438.017 581.7 439.94 583.664 442.774C585.273 432.648 586.882 422.522 588.491 412.395C588.865 410.046 589.179 407.421 587.802 405.481C585.908 402.812 587.557 399.155 589.218 396.334L592.551 390.676ZM287.583 434.445C289.332 434.794 291.32 436.304 290.658 437.959C290.25 438.978 289.018 439.39 287.921 439.449C286.824 439.507 285.683 439.345 284.656 439.734C283.447 440.192 282.024 439.122 281.877 437.838C281.729 436.553 282.622 435.307 283.785 434.742C284.948 434.178 286.316 434.192 287.583 434.445ZM468.737 432.881C469.839 433.033 471.001 433.276 471.803 434.047C472.605 434.818 472.826 436.286 471.972 436.999C471.69 437.235 471.334 437.359 470.986 437.478C469.472 437.995 467.852 438.501 466.299 438.118C464.746 437.734 463.395 436.086 463.933 434.579C464.552 432.841 466.909 432.628 468.737 432.881ZM569.06 412.064C567.893 412.345 567.042 413.319 566.272 414.24L561.638 419.79C560.732 420.875 562.326 422.387 563.734 422.505C565.142 422.622 566.787 422.291 567.789 423.288C568.839 424.331 568.406 426.151 567.546 427.357C566.687 428.562 565.468 429.546 564.948 430.932C564.171 433.005 565.457 435.602 567.576 436.24C568.727 436.587 570.342 436.053 570.352 434.851C570.411 427.826 570.822 420.803 571.582 413.818C571.712 412.625 570.227 411.782 569.06 412.064ZM333.895 415.553C334.783 416.143 335.357 417.087 335.949 417.973C341.034 425.587 349.538 430.819 358.626 431.926C360.728 432.182 363.208 432.437 364.262 434.274C362.282 436.235 359.055 435.996 356.341 435.364C346.719 433.126 337.902 427.567 331.735 419.85C330.751 418.619 329.853 416.747 330.95 415.616C331.692 414.851 333.007 414.963 333.895 415.553ZM564.062 381.91C557.267 383.58 550.482 385.936 544.975 390.252C539.468 394.569 535.371 401.127 535.415 408.123C535.47 416.997 531.11 425.79 524.014 431.118L535.961 432.524C537.36 432.689 538.928 432.808 540.023 431.922C541.625 430.627 541.215 428.14 540.811 426.119C540.406 424.099 540.495 421.429 542.417 420.686C544.804 419.764 546.779 423.075 546.417 425.608C546.056 428.141 544.586 430.579 545.046 433.096C550.704 433.898 556.38 434.575 562.068 435.124C560.936 434.195 560.813 432.435 561.386 431.087C561.958 429.74 563.07 428.709 564.15 427.721C565.301 426.668 563.642 424.814 562.091 424.647C560.541 424.48 558.716 424.853 557.623 423.741C556.264 422.357 557.284 420.038 558.443 418.484C560.694 415.467 563.483 411.83 562.035 408.357C558.502 399.886 559.28 389.744 564.062 381.91ZM303.48 358.764C302.533 381.954 302.663 405.187 303.869 428.364C312.727 423.558 319.199 415.1 323.213 405.856C325.662 400.216 327.301 394 326.322 387.929C325.592 383.403 323.449 379.221 320.957 375.372C316.537 368.544 310.766 362.381 303.48 358.764ZM508.883 347.654C512.064 347.068 514.496 350.995 513.954 354.184C513.412 357.373 511.093 359.909 509.251 362.568C506.706 366.242 504.966 370.401 503.244 374.525C499.147 384.339 497.552 395.184 498.651 405.761C499.298 411.989 501.005 418.385 505.216 423.018C509.426 427.652 516.644 429.968 522.192 427.068C526.958 424.578 529.335 419.086 530.428 413.822C531.521 408.557 531.715 403.045 533.78 398.08C537.589 388.921 546.982 383.387 556.274 379.913C542.306 378.016 529.668 368.283 524.265 355.263C522.716 351.529 521.553 347.32 518.339 344.868C515.124 342.417 509.072 343.616 508.883 347.654ZM390.814 422.355C391.796 422.544 392.76 422.829 393.686 423.206C395.215 423.828 396.858 425.548 395.874 426.874C395.337 427.598 394.305 427.685 393.404 427.708C391.76 427.75 389.987 427.755 388.644 426.806C387.302 425.857 386.837 423.56 388.191 422.627C388.935 422.114 389.927 422.185 390.814 422.355ZM464.866 418.441C466.196 418.554 467.52 418.738 468.831 418.993C469.479 419.12 470.178 419.296 470.585 419.816C471.203 420.603 470.814 421.839 470.033 422.465C469.252 423.09 468.213 423.266 467.224 423.421C465.713 423.658 464.101 423.882 462.708 423.253C461.314 422.624 460.362 420.781 461.214 419.512C461.957 418.404 463.537 418.328 464.866 418.441ZM84.698 411.288C83.5716 411.275 83.1819 412.779 83.2161 413.905C83.3143 417.141 83.9692 420.359 85.1435 423.375C85.4704 423.709 85.85 423.013 85.8043 422.548L84.698 411.288ZM301.139 419.618C300.436 419.999 300.168 421.01 300.59 421.689L300.607 421.714L300.592 421.73C300.573 421.753 300.553 421.78 300.531 421.812C300.248 422.24 300.645 422.919 301.157 422.883C301.503 421.831 301.496 420.666 301.139 419.618ZM286.499 415.039C288.023 415.376 289.677 416.641 289.298 418.155C289.047 419.158 287.991 419.747 286.981 419.971C285.972 420.196 284.905 420.181 283.94 420.555C282.714 421.032 281.237 420.043 280.985 418.752C280.732 417.461 281.523 416.113 282.664 415.458C283.806 414.804 285.214 414.755 286.499 415.039ZM295.319 201.439C295.408 271.247 297.012 341.052 300.129 410.79L300.457 418.001L300.506 415.681C300.596 410.261 300.517 404.838 300.437 399.417C299.507 335.875 298.576 272.332 297.645 208.79C297.607 206.129 297.397 203.101 295.319 201.439ZM395.166 404.831C396.021 405.087 396.879 405.475 397.433 406.174C397.988 406.874 398.147 407.948 397.598 408.652C397.067 409.334 396.105 409.463 395.244 409.539L391.571 409.865C390.971 409.919 390.326 409.963 389.804 409.661C389.382 409.417 389.103 408.973 388.975 408.503C388.589 407.089 389.546 405.554 390.869 404.924C392.192 404.293 393.761 404.411 395.166 404.831ZM99.3301 350.187C95.5116 353.939 93.5255 359.125 91.6905 364.154C86.5772 378.167 81.7179 393.041 84.2409 407.743C85.0211 407.886 85.3929 406.824 85.4508 406.033C86.488 391.85 89.3223 377.799 93.8644 364.322C95.5975 359.18 97.682 353.958 101.532 350.134C101.479 349.203 99.9954 349.533 99.3301 350.187ZM568.76 380.841C568.094 381.005 567.663 381.633 567.315 382.224C564.029 387.799 562.482 394.384 562.941 400.839C563.13 403.505 563.988 406.575 566.477 407.547C568.501 405.604 570.525 403.66 572.549 401.717C572.87 401.409 573.199 401.089 573.377 400.68C573.821 399.658 573.186 398.517 572.603 397.568C569.719 392.874 567.552 386.926 569.955 381.969C570.254 381.352 569.426 380.677 568.76 380.841ZM610.814 374.825C610.491 374.994 610.241 375.272 610 375.545C604.026 382.302 598.256 389.24 592.7 396.345C591.54 397.829 590.33 399.503 590.444 401.383C590.545 403.054 591.721 404.51 593.146 405.39C594.571 406.269 596.231 406.67 597.86 407.058C598.296 407.161 598.769 407.262 599.179 407.081C599.556 406.914 599.795 406.544 600.013 406.193C603.414 400.71 606.863 395.117 608.469 388.868C608.812 387.535 609.967 386.604 610.891 385.584C612.705 383.58 613.768 380.911 613.829 378.208C613.85 377.293 613.742 376.328 613.213 375.581C612.683 374.834 611.625 374.402 610.814 374.825ZM465.308 401.572C466.131 401.776 467.039 402.089 467.408 402.852C468.059 404.197 466.532 405.601 465.104 406.042C463.997 406.385 462.763 406.503 461.701 406.039C460.64 405.575 459.834 404.404 460.075 403.271C460.503 401.259 463.311 401.077 465.308 401.572ZM287.861 398.634C288.25 398.983 288.61 399.392 288.757 399.893C289.054 400.9 288.351 402.01 287.386 402.424C286.421 402.838 285.295 402.678 284.323 402.282C283.299 401.865 282.302 401.066 282.172 399.969C282.023 398.713 283.16 397.558 284.412 397.376C285.663 397.195 286.92 397.791 287.861 398.634ZM398.587 387.597C399.586 388.003 399.69 389.514 399.001 390.343C398.313 391.173 397.164 391.449 396.09 391.539C395.016 391.63 393.904 391.59 392.901 391.983C391.358 392.587 389.681 390.724 390.048 389.109C390.415 387.494 392.15 386.49 393.804 386.413C395.459 386.336 397.054 386.972 398.587 387.597ZM463.596 385.167C465.012 385.237 466.412 385.609 467.675 386.25C468.223 386.529 468.79 386.914 468.946 387.509C469.267 388.733 467.731 389.574 466.487 389.813C465.385 390.025 464.266 390.151 463.145 390.189C461.76 390.237 460.09 389.971 459.539 388.7C459.11 387.713 459.632 386.502 460.509 385.878C461.386 385.254 462.522 385.115 463.596 385.167ZM554.855 294.759C546.596 296.091 538.301 297.196 529.982 298.07C523.955 298.704 518.279 302.123 514.902 307.154C514.208 308.187 513.73 309.837 514.802 310.47C517.834 306.972 521.95 304.427 526.435 303.277C528.038 302.865 529.792 302.641 531.304 303.315C532.815 303.988 533.895 305.842 533.211 307.349C532.161 309.663 528.811 309.015 526.275 308.861C519.222 308.431 513.122 316.503 515.462 323.17C517.104 316.805 526.191 314.042 531.284 318.197C536.378 322.353 535.755 331.479 530.308 335.157C528.507 336.373 526.196 337.22 525.374 339.231C524.67 340.955 525.348 342.902 526.024 344.638C527.084 347.361 528.145 350.085 529.205 352.809C531.428 358.519 533.79 364.438 538.29 368.598C541.751 371.796 546.239 373.699 550.817 374.815C567.323 378.838 585.905 372.435 596.43 359.098C597.274 358.03 599.198 359.044 599.349 360.397C599.499 361.75 598.574 362.967 597.659 363.974C592.946 369.162 587.006 373.226 580.465 375.74C577.372 376.928 573.697 378.213 572.747 381.386C571.96 384.014 573.616 386.918 575.994 388.286C578.372 389.654 581.271 389.769 583.998 389.471C589.436 388.876 594.698 386.747 599.021 383.394C600.331 382.377 601.6 381.189 602.182 379.636C602.733 378.166 602.608 376.54 602.474 374.975L602.358 373.63C601.848 367.795 601.187 361.892 598.809 356.557C597.664 353.99 596.134 351.586 595.291 348.905C594.252 345.599 594.315 342.052 593.617 338.658C592.918 335.264 591.151 331.738 587.919 330.487C588.772 328.318 590.902 326.953 592.281 325.074C593.66 323.195 593.863 319.913 591.692 319.064C590.654 318.659 589.472 319.008 588.483 319.522C584.313 321.687 582.064 326.986 583.402 331.489C584.276 334.428 579.633 336.4 577.133 334.625C574.633 332.85 574.017 329.469 573.524 326.443C571.613 314.713 567.778 302.066 557.76 295.672C556.884 295.113 555.88 294.593 554.855 294.759ZM286.986 377.969C288.303 378.396 289.616 379.579 289.342 380.936C289.083 382.22 287.606 382.82 286.316 383.041C284.486 383.354 282.099 382.995 281.584 381.211C281.095 379.513 282.872 377.887 284.629 377.701C285.421 377.617 286.228 377.723 286.986 377.969ZM498.223 353.535C496.995 354.699 496.397 356.361 495.839 357.958C494.58 361.561 493.304 365.27 493.449 369.084C493.543 371.539 492.118 373.751 491.101 375.988C490.085 378.225 489.533 381.09 491.127 382.959C494.934 379.758 495.848 374.37 496.685 369.467C497.686 363.605 499.047 357.528 502.838 352.947C501.511 351.897 499.451 352.371 498.223 353.535ZM397.904 369.872C398.884 370.187 399.993 370.817 400.005 371.846C400.02 373.098 398.479 373.674 397.247 373.899C396.63 374.012 396.012 374.125 395.395 374.238C393.822 374.526 392.136 374.802 390.673 374.154C389.211 373.507 388.237 371.533 389.192 370.249C389.809 369.419 390.945 369.193 391.977 369.129C393.976 369.006 395.998 369.259 397.904 369.872ZM254.836 351.791C256.557 352.614 258.483 354.236 257.845 356.035C240.11 352.168 221.163 354.081 204.558 361.413C197.086 364.713 190.073 369.075 182.34 371.706C179.695 372.605 176.806 373.296 174.134 372.48C171.461 371.664 169.233 368.828 170.014 366.146C170.748 363.627 173.552 362.43 176.037 361.589C188.282 357.444 200.741 353.928 213.347 351.061C227.101 347.932 242.111 345.704 254.836 351.791ZM509.491 351.578C508.224 351.573 507.159 352.502 506.327 353.456C504.307 355.771 502.871 358.546 501.803 361.426C500.476 365.005 499.692 368.783 499.484 372.594C503.152 366.285 507.072 360.124 511.234 354.131C511.957 353.09 510.757 351.583 509.491 351.578ZM487.019 362.817C486.671 362.819 486.305 362.832 486.011 363.018C485.351 363.436 485.443 364.414 485.639 365.171C486.26 367.572 487.12 369.912 488.202 372.143C488.852 368.999 489.895 365.936 491.299 363.048C489.879 362.885 488.448 362.808 487.019 362.817ZM209.111 354.71C198.613 357.937 188.115 361.163 177.618 364.389C176.364 364.775 174.909 365.37 174.641 366.654C175.495 367.9 177.121 368.428 178.629 368.355C180.137 368.282 181.568 367.703 182.966 367.132C193.616 362.781 204.266 358.429 214.916 354.078C213.014 353.546 210.999 354.13 209.111 354.71ZM319.889 360.599C319.325 361.577 318.152 361.992 317.272 362.7C316.393 363.408 315.877 364.931 316.805 365.573C318.227 364.15 319.649 362.726 321.071 361.302C320.777 360.938 320.35 360.684 319.889 360.599ZM430.651 359.842C438.281 360.636 445.981 361.042 453.625 360.384C455.602 360.213 457.967 360.134 459.141 361.734C457.66 363.243 455.331 363.425 453.218 363.516C445.284 363.856 437.35 364.195 429.417 364.535C427.869 364.602 425.909 364.405 425.407 362.939C425.011 361.785 425.91 360.513 427.038 360.05C428.166 359.587 429.438 359.715 430.651 359.842ZM548.622 351.504C550.468 353.75 551.142 356.91 550.373 359.713C550.184 360.405 549.907 361.084 549.464 361.649C548.304 363.131 546.161 363.569 544.33 363.13C542.5 362.692 540.932 361.526 539.535 360.265C538.095 358.964 536.744 357.483 536.053 355.67C535.362 353.857 535.443 351.652 536.669 350.148C537.679 348.909 539.312 348.315 540.906 348.198C543.806 347.986 546.775 349.258 548.622 351.504ZM291.388 356.725C292.117 357.314 291.995 358.538 291.372 359.239C290.75 359.94 289.801 360.239 288.891 360.465C287.817 360.733 286.688 360.943 285.611 360.687C284.534 360.431 283.524 359.595 283.392 358.497C283.2 356.902 284.868 355.655 286.455 355.405C288.186 355.132 290.024 355.624 291.388 356.725ZM540.173 352.033C539.365 353.08 539.896 354.968 541.206 355.147C542.72 355.354 543.898 356.944 543.654 358.452C543.462 359.636 544.906 360.626 546.052 360.27C547.197 359.915 547.86 358.631 547.834 357.432C547.809 356.233 547.237 355.115 546.588 354.106C545.873 352.994 544.998 351.914 543.791 351.373C542.585 350.831 540.982 350.987 540.173 352.033ZM536.143 244.537C525.142 246.552 514.244 251.357 507.149 260.002C500.054 268.647 497.6 281.585 503.147 291.296C505.107 294.727 508.1 297.72 511.863 298.928C515.626 300.136 520.177 299.247 522.687 296.195C525.535 292.733 531.284 296.053 535.57 294.739C541.499 292.921 547.661 291.867 553.857 291.609C555.326 291.548 556.841 291.539 558.212 292.07C559.7 292.647 560.876 293.804 562.007 294.931C565.928 298.838 569.93 302.858 572.252 307.884C575.934 315.853 575.023 325.571 579.674 333.016C580.217 328.347 580.761 323.678 581.304 319.009C581.506 317.277 581.731 315.478 582.667 314.006C583.604 312.535 585.476 311.502 587.115 312.098C590.007 313.148 593.018 314.276 595.093 316.548C597.169 318.819 597.937 322.605 595.942 324.947C594.013 327.21 596.201 330.481 597.225 333.272C598.999 338.108 596.913 343.634 598.307 348.593C599.462 352.701 602.799 355.768 605.988 358.604C606.92 359.433 608.007 360.317 609.25 360.204C610.29 360.109 611.126 359.334 611.837 358.568C616.074 354.001 618.976 348.21 620.098 342.082C620.551 339.609 619.691 336.007 617.2 336.345C617.881 330.413 623.334 326.371 626.537 321.332C629.991 315.896 630.807 309.213 630.965 302.775C631.123 296.304 630.491 289.272 626.179 284.445C620.999 278.646 610.933 278.213 605.273 283.545C603.862 284.875 602.003 286.631 600.32 285.669C601.639 283.303 602.958 280.937 604.277 278.57C606.427 274.714 608.622 270.717 609.059 266.324C609.922 257.656 603.323 249.448 595.162 246.4C587.002 243.351 577.789 244.615 569.603 247.597C567.552 248.344 565.128 249.949 565.684 252.06C566.007 253.283 567.245 254.021 567.88 255.115C568.276 255.796 568.237 256.014 567.789 256.566C567.518 256.899 567.031 257.864 566.593 257.675C561.953 252.301 556.933 246.674 550.13 244.641C545.62 243.294 540.773 243.689 536.143 244.537ZM483.436 355.385C482.856 355.041 481.746 354.815 481.854 355.481C482.168 357.109 483.634 358.32 485.215 358.817C486.796 359.315 488.494 359.231 490.15 359.142C490.797 359.107 491.488 359.057 492.003 358.664C492.435 358.334 492.672 357.815 492.892 357.318C493.269 356.466 493.646 355.615 494.023 354.763C490.946 352.761 486.595 357.256 483.436 355.385ZM394.585 349.824C395.879 349.921 397.163 350.147 398.413 350.497C399.496 350.8 400.74 351.434 400.793 352.557C400.864 354.036 398.941 354.64 397.466 354.767C395.965 354.897 394.464 355.027 392.963 355.156C391.87 355.251 390.633 355.299 389.829 354.552C388.749 353.548 389.185 351.602 390.354 350.704C391.523 349.807 393.115 349.714 394.585 349.824ZM429.685 349.502C436.863 350.463 444.139 350.695 451.364 350.193C452.212 350.134 453.135 350.084 453.833 350.569C454.531 351.053 454.704 352.302 453.943 352.679C453.712 352.793 453.445 352.804 453.188 352.814C444.453 353.144 435.719 353.473 426.984 353.803C426.188 353.833 425.311 353.837 424.698 353.327C423.602 352.415 424.231 350.462 425.488 349.788C426.746 349.114 428.271 349.313 429.685 349.502ZM499.382 342.388C496.594 342.538 493.756 342.797 491.181 343.878C488.606 344.96 486.296 346.994 485.527 349.679C485.371 350.224 485.313 350.895 485.731 351.278C486.057 351.576 486.547 351.58 486.988 351.563C491.62 351.38 496.233 350.691 500.716 349.509C502.944 348.922 505.631 347.505 505.33 345.22C505.171 344.017 504.133 343.077 502.987 342.679C501.841 342.28 500.594 342.323 499.382 342.388ZM177.667 342.052C177.223 344.405 177.114 346.822 177.346 349.205C177.922 349.827 178.68 348.613 178.631 347.766C178.52 345.834 178.196 343.914 177.667 342.052ZM326.83 339.173C342.887 339.899 358.944 340.625 375.001 341.351C376.5 341.418 378.491 341.992 378.403 343.49C376.486 344.721 374.014 344.466 371.752 344.202C357.438 342.535 342.958 342.304 328.598 343.516C327.359 343.62 326.042 343.721 324.936 343.153C323.829 342.584 323.116 341.068 323.834 340.052C324.463 339.164 325.743 339.124 326.83 339.173ZM287.893 337.489C288.6 337.596 289.336 337.781 289.849 338.278C291.022 339.415 290.298 341.576 288.887 342.399C287.476 343.223 285.728 343.107 284.1 342.967C282.314 342.812 281.735 340.133 282.908 338.777C284.081 337.421 286.121 337.222 287.893 337.489ZM344.368 331.55C370.538 332.908 396.707 334.265 422.876 335.623C424.278 335.696 426.133 336.235 426.059 337.636C421.744 338.414 417.275 338.327 412.993 337.383L416.795 340.655C414.983 341.798 413.051 342.978 410.909 343.026C408.767 343.073 406.434 341.494 406.495 339.352C407.579 338.852 408.663 338.351 409.747 337.851C388.607 336.04 367.368 335.379 346.157 335.872C344.932 335.901 343.626 335.912 342.593 335.255C341.559 334.599 341.036 333.004 341.892 332.128C342.503 331.502 343.494 331.505 344.368 331.55ZM513.819 335.05C512.876 335.101 512.076 335.727 511.345 336.325C510.478 337.034 509.612 337.743 508.746 338.452C507.838 339.195 506.855 340.081 506.802 341.253C506.773 341.889 507.257 342.643 507.877 342.5C508.05 342.46 508.2 342.356 508.345 342.253C510.409 340.797 512.473 339.342 514.537 337.886C514.958 337.589 515.408 337.253 515.544 336.756C515.794 335.845 514.762 334.998 513.819 335.05ZM545.92 327.425C546.002 329.547 544.948 331.537 544.574 333.628C544.199 335.719 544.913 338.381 546.98 338.871C547.59 339.015 547.767 339.888 547.423 340.411C547.078 340.935 546.428 341.161 545.811 341.273C543.896 341.621 541.628 341.006 540.748 339.27C540.307 338.4 540.273 337.389 540.248 336.415C540.181 333.807 540.114 331.199 540.047 328.59C540.001 326.807 540.201 324.611 541.833 323.892C543.777 323.034 545.838 325.302 545.92 327.425ZM517.454 339.257C517.077 339.433 516.82 339.84 516.824 340.257L516.73 340.281C516.939 340.746 517.693 340.819 517.987 340.402C518.282 339.986 517.963 339.3 517.454 339.257ZM513.844 325.625C512.978 325.647 512.01 325.804 511.498 326.502C510.95 327.249 511.172 328.345 511.734 329.081C512.297 329.817 513.125 330.291 513.898 330.801C517.154 332.948 519.754 336.077 521.269 339.671C522.3 338.315 523.33 336.959 524.36 335.602C525.13 334.589 525.941 333.431 525.779 332.169C525.662 331.258 525.049 330.491 524.4 329.842C521.646 327.087 517.738 325.525 513.844 325.625ZM181.943 304.641C180.733 304.74 180.105 306.099 179.725 307.252C179.145 309.009 178.565 310.767 177.986 312.524C177.352 314.443 176.714 316.384 176.541 318.398C176.425 319.733 176.517 321.076 176.608 322.412C176.893 326.586 177.177 330.76 177.462 334.934C177.517 335.741 178.131 336.855 178.798 336.398C178.521 325.737 179.58 315.041 181.943 304.641ZM524.261 319.989C523.163 320.407 521.996 321.143 521.837 322.307C521.678 323.472 523.393 324.553 524.058 323.584C524.907 322.347 527.029 322.993 527.73 324.319C528.432 325.645 528.226 327.24 528.216 328.74C528.205 330.241 528.55 331.962 529.858 332.697C530.077 330.69 530.297 328.683 530.516 326.676C530.787 324.198 530.771 321.125 528.593 319.913C527.29 319.187 525.656 319.458 524.261 319.989ZM559.539 318.855C561.322 318.934 563.226 319.556 564.201 321.051C565.177 322.546 564.659 324.994 562.94 325.476C560.488 326.163 558.195 322.707 555.797 323.565C554.298 324.102 553.372 326.21 551.808 325.908C550.839 325.72 550.302 324.559 550.495 323.59C550.688 322.621 551.411 321.846 552.185 321.233C554.248 319.598 556.91 318.738 559.539 318.855ZM286.48 317.09C288.199 317.367 289.882 319.249 288.976 320.736C288.721 321.154 288.308 321.45 287.875 321.678C286.803 322.242 285.481 322.434 284.374 321.942C283.267 321.45 282.489 320.173 282.788 318.999C283.165 317.524 284.978 316.847 286.48 317.09ZM562.335 307.303C563.518 308.428 564.439 310.546 563.115 311.501C561.714 312.51 560.036 310.806 558.695 309.717C557.198 308.501 555.169 307.964 553.265 308.281C552.048 308.483 550.901 309.012 549.68 309.189C548.459 309.367 547.038 309.086 546.372 308.048C545.673 306.958 546.117 305.416 547.079 304.55C548.04 303.683 549.376 303.366 550.665 303.248C554.893 302.861 559.258 304.378 562.335 307.303ZM286.421 303.856C287.476 304.475 288.045 305.934 287.458 307.007C286.681 308.426 284.647 308.406 283.078 308.016C282.512 307.876 281.918 307.691 281.544 307.245C280.651 306.18 281.652 304.509 282.899 303.894C283.996 303.353 285.365 303.237 286.421 303.856Z" fill="#00160A"/>
<path fill-rule="evenodd" clip-rule="evenodd" d="M144.752 446.484C144.896 446.884 145.029 447.333 144.864 447.725C144.568 448.429 143.605 448.456 142.841 448.45C137.47 448.407 132.476 453.021 132.095 458.379C132.055 458.945 131.277 459.203 130.773 458.941C130.27 458.679 130.011 458.113 129.837 457.573C128.856 454.529 129.488 451.116 131.052 448.325C132.617 445.535 135.037 443.309 137.667 441.488C138.687 440.781 139.958 440.103 141.112 440.559C141.874 440.86 142.372 441.588 142.788 442.295C143.57 443.626 144.228 445.031 144.752 446.484ZM141.632 445.874C141.159 444.428 139.24 443.909 137.807 444.42C136.374 444.931 135.329 446.149 134.354 447.317C133.429 448.424 132.462 449.633 132.353 451.071C134.824 448.453 138.108 446.614 141.632 445.874Z" fill="#FFB61D"/>
</svg>
